<svg width="24" height="24" viewBox="0 0 24 24" fill="none" xmlns="http://www.w3.org/2000/svg">
<path d="M3.80874 20.1498L3.05125 5H20.9487L20.1913 20.1498C20.1114 21.7464 18.7936 23 17.195 23H6.805C5.20637 23 3.88857 21.7464 3.80874 20.1498Z" stroke="url(#paint0_linear)" stroke-width="2"/>
<path d="M8 5H16V3C16 1.89543 15.1046 1 14 1H10C8.89543 1 8 1.89543 8 3V5Z" stroke="url(#paint1_linear)" stroke-width="2"/>
<path d="M1 5H23" stroke="url(#paint2_linear)" stroke-width="2" stroke-linecap="round"/>
<path d="M15 11V16" stroke="url(#paint3_linear)" stroke-width="2" stroke-linecap="round"/>
<path d="M9 11V16" stroke="url(#paint4_linear)" stroke-width="2" stroke-linecap="round"/>
<defs>
<linearGradient id="paint0_linear" x1="2" y1="4" x2="26.1097" y2="14.9576" gradientUnits="userSpaceOnUse">
<stop stop-color="#EB0055"/>
<stop offset="1" stop-color="#FFFA80"/>
</linearGradient>
<linearGradient id="paint1_linear" x1="7" y1="6" x2="16.242" y2="-1.00065" gradientUnits="userSpaceOnUse">
<stop stop-color="#EB0055"/>
<stop offset="1" stop-color="#FFFA80"/>
</linearGradient>
<linearGradient id="paint2_linear" x1="1" y1="5" x2="1.3169" y2="8.16858" gradientUnits="userSpaceOnUse">
<stop stop-color="#EB0055"/>
<stop offset="1" stop-color="#FFFA80"/>
</linearGradient>
<linearGradient id="paint3_linear" x1="15" y1="11" x2="16.4426" y2="11.1311" gradientUnits="userSpaceOnUse">
<stop stop-color="#EB0055"/>
<stop offset="1" stop-color="#FFFA80"/>
</linearGradient>
<linearGradient id="paint4_linear" x1="9" y1="11" x2="10.4426" y2="11.1311" gradientUnits="userSpaceOnUse">
<stop stop-color="#EB0055"/>
<stop offset="1" stop-color="#FFFA80"/>
</linearGradient>
</defs>
</svg>
