<svg width="14.25rem" height="7.68rem" viewBox="0 0 229 124" fill="none" xmlns="http://www.w3.org/2000/svg">
<path d="M13.663 116.112C12.6283 116.112 11.6843 115.872 10.831 115.392C9.97767 114.901 9.30033 114.224 8.799 113.36C8.30833 112.485 8.063 111.504 8.063 110.416C8.063 109.328 8.30833 108.352 8.799 107.488C9.30033 106.613 9.97767 105.936 10.831 105.456C11.6843 104.965 12.6283 104.72 13.663 104.72C14.7083 104.72 15.6577 104.965 16.511 105.456C17.3643 105.936 18.0363 106.608 18.527 107.472C19.0177 108.336 19.263 109.317 19.263 110.416C19.263 111.515 19.0177 112.496 18.527 113.36C18.0363 114.224 17.3643 114.901 16.511 115.392C15.6577 115.872 14.7083 116.112 13.663 116.112ZM13.663 114.848C14.4417 114.848 15.1403 114.667 15.759 114.304C16.3883 113.941 16.879 113.424 17.231 112.752C17.5937 112.08 17.775 111.301 17.775 110.416C17.775 109.52 17.5937 108.741 17.231 108.08C16.879 107.408 16.3937 106.891 15.775 106.528C15.1563 106.165 14.4523 105.984 13.663 105.984C12.8737 105.984 12.1697 106.165 11.551 106.528C10.9323 106.891 10.4417 107.408 10.079 108.08C9.727 108.741 9.551 109.52 9.551 110.416C9.551 111.301 9.727 112.08 10.079 112.752C10.4417 113.424 10.9323 113.941 11.551 114.304C12.1803 114.667 12.8843 114.848 13.663 114.848ZM23.3911 108.656C23.6471 108.155 24.0098 107.765 24.4791 107.488C24.9591 107.211 25.5405 107.072 26.2231 107.072V108.576H25.8391C24.2071 108.576 23.3911 109.461 23.3911 111.232V116H21.9351V107.232H23.3911V108.656ZM32.2699 107.088C33.0272 107.088 33.6885 107.253 34.2539 107.584C34.8299 107.915 35.2565 108.331 35.5339 108.832V107.232H37.0059V116.192C37.0059 116.992 36.8352 117.701 36.4939 118.32C36.1525 118.949 35.6619 119.44 35.0219 119.792C34.3925 120.144 33.6565 120.32 32.8139 120.32C31.6619 120.32 30.7019 120.048 29.9339 119.504C29.1659 118.96 28.7125 118.219 28.5739 117.28H30.0139C30.1739 117.813 30.5045 118.24 31.0059 118.56C31.5072 118.891 32.1099 119.056 32.8139 119.056C33.6139 119.056 34.2645 118.805 34.7659 118.304C35.2779 117.803 35.5339 117.099 35.5339 116.192V114.352C35.2459 114.864 34.8192 115.291 34.2539 115.632C33.6885 115.973 33.0272 116.144 32.2699 116.144C31.4912 116.144 30.7819 115.952 30.1419 115.568C29.5125 115.184 29.0165 114.645 28.6539 113.952C28.2912 113.259 28.1099 112.469 28.1099 111.584C28.1099 110.688 28.2912 109.904 28.6539 109.232C29.0165 108.549 29.5125 108.021 30.1419 107.648C30.7819 107.275 31.4912 107.088 32.2699 107.088ZM35.5339 111.6C35.5339 110.939 35.4005 110.363 35.1339 109.872C34.8672 109.381 34.5045 109.008 34.0459 108.752C33.5979 108.485 33.1019 108.352 32.5579 108.352C32.0139 108.352 31.5179 108.48 31.0699 108.736C30.6219 108.992 30.2645 109.365 29.9979 109.856C29.7312 110.347 29.5979 110.923 29.5979 111.584C29.5979 112.256 29.7312 112.843 29.9979 113.344C30.2645 113.835 30.6219 114.213 31.0699 114.48C31.5179 114.736 32.0139 114.864 32.5579 114.864C33.1019 114.864 33.5979 114.736 34.0459 114.48C34.5045 114.213 34.8672 113.835 35.1339 113.344C35.4005 112.843 35.5339 112.261 35.5339 111.6ZM39.6724 111.584C39.6724 110.688 39.8537 109.904 40.2164 109.232C40.579 108.549 41.075 108.021 41.7044 107.648C42.3444 107.275 43.0537 107.088 43.8324 107.088C44.6004 107.088 45.267 107.253 45.8324 107.584C46.3977 107.915 46.819 108.331 47.0964 108.832V107.232H48.5684V116H47.0964V114.368C46.8084 114.88 46.3764 115.307 45.8004 115.648C45.235 115.979 44.5737 116.144 43.8164 116.144C43.0377 116.144 42.3337 115.952 41.7044 115.568C41.075 115.184 40.579 114.645 40.2164 113.952C39.8537 113.259 39.6724 112.469 39.6724 111.584ZM47.0964 111.6C47.0964 110.939 46.963 110.363 46.6964 109.872C46.4297 109.381 46.067 109.008 45.6084 108.752C45.1604 108.485 44.6644 108.352 44.1204 108.352C43.5764 108.352 43.0804 108.48 42.6324 108.736C42.1844 108.992 41.827 109.365 41.5604 109.856C41.2937 110.347 41.1604 110.923 41.1604 111.584C41.1604 112.256 41.2937 112.843 41.5604 113.344C41.827 113.835 42.1844 114.213 42.6324 114.48C43.0804 114.736 43.5764 114.864 44.1204 114.864C44.6644 114.864 45.1604 114.736 45.6084 114.48C46.067 114.213 46.4297 113.835 46.6964 113.344C46.963 112.843 47.0964 112.261 47.0964 111.6ZM56.0509 107.072C57.1175 107.072 57.9815 107.397 58.6429 108.048C59.3042 108.688 59.6349 109.616 59.6349 110.832V116H58.1949V111.04C58.1949 110.165 57.9762 109.499 57.5389 109.04C57.1015 108.571 56.5042 108.336 55.7469 108.336C54.9789 108.336 54.3655 108.576 53.9069 109.056C53.4589 109.536 53.2349 110.235 53.2349 111.152V116H51.7789V107.232H53.2349V108.48C53.5229 108.032 53.9122 107.685 54.4029 107.44C54.9042 107.195 55.4535 107.072 56.0509 107.072ZM63.5153 105.808C63.2379 105.808 63.0033 105.712 62.8113 105.52C62.6193 105.328 62.5233 105.093 62.5233 104.816C62.5233 104.539 62.6193 104.304 62.8113 104.112C63.0033 103.92 63.2379 103.824 63.5153 103.824C63.7819 103.824 64.0059 103.92 64.1873 104.112C64.3793 104.304 64.4753 104.539 64.4753 104.816C64.4753 105.093 64.3793 105.328 64.1873 105.52C64.0059 105.712 63.7819 105.808 63.5153 105.808ZM64.2193 107.232V116H62.7633V107.232H64.2193ZM68.5388 114.8H72.8428V116H66.8748V114.8L71.1308 108.416H66.9068V107.232H72.8108V108.416L68.5388 114.8ZM83.482 111.28C83.482 111.557 83.466 111.851 83.434 112.16H76.426C76.4793 113.024 76.7727 113.701 77.306 114.192C77.85 114.672 78.506 114.912 79.274 114.912C79.9033 114.912 80.426 114.768 80.842 114.48C81.2687 114.181 81.5673 113.787 81.738 113.296H83.306C83.0713 114.139 82.602 114.827 81.898 115.36C81.194 115.883 80.3193 116.144 79.274 116.144C78.442 116.144 77.6953 115.957 77.034 115.584C76.3833 115.211 75.8713 114.683 75.498 114C75.1247 113.307 74.938 112.507 74.938 111.6C74.938 110.693 75.1193 109.899 75.482 109.216C75.8447 108.533 76.3513 108.011 77.002 107.648C77.6633 107.275 78.4207 107.088 79.274 107.088C80.106 107.088 80.842 107.269 81.482 107.632C82.122 107.995 82.6127 108.496 82.954 109.136C83.306 109.765 83.482 110.48 83.482 111.28ZM81.978 110.976C81.978 110.421 81.8553 109.947 81.61 109.552C81.3647 109.147 81.0287 108.843 80.602 108.64C80.186 108.427 79.722 108.32 79.21 108.32C78.474 108.32 77.8447 108.555 77.322 109.024C76.81 109.493 76.5167 110.144 76.442 110.976H81.978ZM92.9455 108.432V113.6C92.9455 114.027 93.0362 114.331 93.2175 114.512C93.3988 114.683 93.7135 114.768 94.1615 114.768H95.2335V116H93.9215C93.1108 116 92.5028 115.813 92.0975 115.44C91.6922 115.067 91.4895 114.453 91.4895 113.6V108.432H90.3535V107.232H91.4895V105.024H92.9455V107.232H95.2335V108.432H92.9455ZM105.524 107.232V116H104.068V114.704C103.79 115.152 103.401 115.504 102.9 115.76C102.409 116.005 101.865 116.128 101.268 116.128C100.585 116.128 99.9716 115.989 99.4276 115.712C98.8836 115.424 98.4516 114.997 98.1316 114.432C97.8223 113.867 97.6676 113.179 97.6676 112.368V107.232H99.1076V112.176C99.1076 113.04 99.3263 113.707 99.7636 114.176C100.201 114.635 100.798 114.864 101.556 114.864C102.334 114.864 102.948 114.624 103.396 114.144C103.844 113.664 104.068 112.965 104.068 112.048V107.232H105.524ZM108.188 111.584C108.188 110.688 108.369 109.904 108.732 109.232C109.095 108.549 109.591 108.021 110.22 107.648C110.86 107.275 111.575 107.088 112.364 107.088C113.047 107.088 113.681 107.248 114.268 107.568C114.855 107.877 115.303 108.288 115.612 108.8V104.16H117.084V116H115.612V114.352C115.324 114.875 114.897 115.307 114.332 115.648C113.767 115.979 113.105 116.144 112.348 116.144C111.569 116.144 110.86 115.952 110.22 115.568C109.591 115.184 109.095 114.645 108.732 113.952C108.369 113.259 108.188 112.469 108.188 111.584ZM115.612 111.6C115.612 110.939 115.479 110.363 115.212 109.872C114.945 109.381 114.583 109.008 114.124 108.752C113.676 108.485 113.18 108.352 112.636 108.352C112.092 108.352 111.596 108.48 111.148 108.736C110.7 108.992 110.343 109.365 110.076 109.856C109.809 110.347 109.676 110.923 109.676 111.584C109.676 112.256 109.809 112.843 110.076 113.344C110.343 113.835 110.7 114.213 111.148 114.48C111.596 114.736 112.092 114.864 112.636 114.864C113.18 114.864 113.676 114.736 114.124 114.48C114.583 114.213 114.945 113.835 115.212 113.344C115.479 112.843 115.612 112.261 115.612 111.6ZM124.119 116.144C123.297 116.144 122.551 115.957 121.879 115.584C121.217 115.211 120.695 114.683 120.311 114C119.937 113.307 119.751 112.507 119.751 111.6C119.751 110.704 119.943 109.915 120.327 109.232C120.721 108.539 121.255 108.011 121.927 107.648C122.599 107.275 123.351 107.088 124.183 107.088C125.015 107.088 125.767 107.275 126.439 107.648C127.111 108.011 127.639 108.533 128.023 109.216C128.417 109.899 128.615 110.693 128.615 111.6C128.615 112.507 128.412 113.307 128.007 114C127.612 114.683 127.073 115.211 126.391 115.584C125.708 115.957 124.951 116.144 124.119 116.144ZM124.119 114.864C124.641 114.864 125.132 114.741 125.591 114.496C126.049 114.251 126.417 113.883 126.695 113.392C126.983 112.901 127.127 112.304 127.127 111.6C127.127 110.896 126.988 110.299 126.711 109.808C126.433 109.317 126.071 108.955 125.623 108.72C125.175 108.475 124.689 108.352 124.167 108.352C123.633 108.352 123.143 108.475 122.695 108.72C122.257 108.955 121.905 109.317 121.639 109.808C121.372 110.299 121.239 110.896 121.239 111.6C121.239 112.315 121.367 112.917 121.623 113.408C121.889 113.899 122.241 114.267 122.679 114.512C123.116 114.747 123.596 114.864 124.119 114.864ZM139.863 108.432H138.023V116H136.567V108.432H135.431V107.232H136.567V106.608C136.567 105.627 136.817 104.912 137.319 104.464C137.831 104.005 138.647 103.776 139.766 103.776V104.992C139.127 104.992 138.673 105.12 138.407 105.376C138.151 105.621 138.023 106.032 138.023 106.608V107.232H139.863V108.432ZM141.766 111.584C141.766 110.688 141.947 109.904 142.31 109.232C142.673 108.549 143.169 108.021 143.798 107.648C144.438 107.275 145.147 107.088 145.926 107.088C146.694 107.088 147.361 107.253 147.926 107.584C148.491 107.915 148.913 108.331 149.19 108.832V107.232H150.662V116H149.19V114.368C148.902 114.88 148.47 115.307 147.894 115.648C147.329 115.979 146.667 116.144 145.91 116.144C145.131 116.144 144.427 115.952 143.798 115.568C143.169 115.184 142.673 114.645 142.31 113.952C141.947 113.259 141.766 112.469 141.766 111.584ZM149.19 111.6C149.19 110.939 149.057 110.363 148.79 109.872C148.523 109.381 148.161 109.008 147.702 108.752C147.254 108.485 146.758 108.352 146.214 108.352C145.67 108.352 145.174 108.48 144.726 108.736C144.278 108.992 143.921 109.365 143.654 109.856C143.387 110.347 143.254 110.923 143.254 111.584C143.254 112.256 143.387 112.843 143.654 113.344C143.921 113.835 144.278 114.213 144.726 114.48C145.174 114.736 145.67 114.864 146.214 114.864C146.758 114.864 147.254 114.736 147.702 114.48C148.161 114.213 148.523 113.835 148.79 113.344C149.057 112.843 149.19 112.261 149.19 111.6ZM153.329 111.6C153.329 110.693 153.51 109.904 153.873 109.232C154.235 108.549 154.737 108.021 155.377 107.648C156.027 107.275 156.769 107.088 157.601 107.088C158.678 107.088 159.563 107.349 160.257 107.872C160.961 108.395 161.425 109.12 161.649 110.048H160.081C159.931 109.515 159.638 109.093 159.201 108.784C158.774 108.475 158.241 108.32 157.601 108.32C156.769 108.32 156.097 108.608 155.585 109.184C155.073 109.749 154.817 110.555 154.817 111.6C154.817 112.656 155.073 113.472 155.585 114.048C156.097 114.624 156.769 114.912 157.601 114.912C158.241 114.912 158.774 114.763 159.201 114.464C159.627 114.165 159.921 113.739 160.081 113.184H161.649C161.414 114.08 160.945 114.8 160.241 115.344C159.537 115.877 158.657 116.144 157.601 116.144C156.769 116.144 156.027 115.957 155.377 115.584C154.737 115.211 154.235 114.683 153.873 114C153.51 113.317 153.329 112.517 153.329 111.6ZM165.093 105.808C164.816 105.808 164.581 105.712 164.389 105.52C164.197 105.328 164.101 105.093 164.101 104.816C164.101 104.539 164.197 104.304 164.389 104.112C164.581 103.92 164.816 103.824 165.093 103.824C165.36 103.824 165.584 103.92 165.765 104.112C165.957 104.304 166.053 104.539 166.053 104.816C166.053 105.093 165.957 105.328 165.765 105.52C165.584 105.712 165.36 105.808 165.093 105.808ZM165.797 107.232V116H164.341V107.232H165.797ZM170.485 104.16V116H169.029V104.16H170.485ZM184.26 107.072C184.943 107.072 185.551 107.216 186.084 107.504C186.618 107.781 187.039 108.203 187.348 108.768C187.658 109.333 187.812 110.021 187.812 110.832V116H186.372V111.04C186.372 110.165 186.154 109.499 185.716 109.04C185.29 108.571 184.708 108.336 183.972 108.336C183.215 108.336 182.612 108.581 182.164 109.072C181.716 109.552 181.492 110.251 181.492 111.168V116H180.052V111.04C180.052 110.165 179.834 109.499 179.396 109.04C178.97 108.571 178.388 108.336 177.652 108.336C176.895 108.336 176.292 108.581 175.844 109.072C175.396 109.552 175.172 110.251 175.172 111.168V116H173.716V107.232H175.172V108.496C175.46 108.037 175.844 107.685 176.324 107.44C176.815 107.195 177.354 107.072 177.94 107.072C178.676 107.072 179.327 107.237 179.892 107.568C180.458 107.899 180.879 108.384 181.156 109.024C181.402 108.405 181.807 107.925 182.372 107.584C182.938 107.243 183.567 107.072 184.26 107.072ZM198.951 111.28C198.951 111.557 198.935 111.851 198.903 112.16H191.895C191.948 113.024 192.241 113.701 192.775 114.192C193.319 114.672 193.975 114.912 194.743 114.912C195.372 114.912 195.895 114.768 196.311 114.48C196.737 114.181 197.036 113.787 197.207 113.296H198.775C198.54 114.139 198.071 114.827 197.367 115.36C196.663 115.883 195.788 116.144 194.743 116.144C193.911 116.144 193.164 115.957 192.503 115.584C191.852 115.211 191.34 114.683 190.967 114C190.593 113.307 190.407 112.507 190.407 111.6C190.407 110.693 190.588 109.899 190.951 109.216C191.313 108.533 191.82 108.011 192.471 107.648C193.132 107.275 193.889 107.088 194.743 107.088C195.575 107.088 196.311 107.269 196.951 107.632C197.591 107.995 198.081 108.496 198.423 109.136C198.775 109.765 198.951 110.48 198.951 111.28ZM197.447 110.976C197.447 110.421 197.324 109.947 197.079 109.552C196.833 109.147 196.497 108.843 196.071 108.64C195.655 108.427 195.191 108.32 194.679 108.32C193.943 108.32 193.313 108.555 192.791 109.024C192.279 109.493 191.985 110.144 191.911 110.976H197.447ZM205.895 107.072C206.961 107.072 207.825 107.397 208.487 108.048C209.148 108.688 209.479 109.616 209.479 110.832V116H208.039V111.04C208.039 110.165 207.82 109.499 207.383 109.04C206.945 108.571 206.348 108.336 205.591 108.336C204.823 108.336 204.209 108.576 203.751 109.056C203.303 109.536 203.079 110.235 203.079 111.152V116H201.623V107.232H203.079V108.48C203.367 108.032 203.756 107.685 204.247 107.44C204.748 107.195 205.297 107.072 205.895 107.072ZM214.383 108.432V113.6C214.383 114.027 214.474 114.331 214.655 114.512C214.836 114.683 215.151 114.768 215.599 114.768H216.671V116H215.359C214.548 116 213.94 115.813 213.535 115.44C213.13 115.067 212.927 114.453 212.927 113.6V108.432H211.791V107.232H212.927V105.024H214.383V107.232H216.671V108.432H214.383ZM227.185 111.28C227.185 111.557 227.169 111.851 227.137 112.16H220.129C220.182 113.024 220.476 113.701 221.009 114.192C221.553 114.672 222.209 114.912 222.977 114.912C223.606 114.912 224.129 114.768 224.545 114.48C224.972 114.181 225.27 113.787 225.441 113.296H227.009C226.774 114.139 226.305 114.827 225.601 115.36C224.897 115.883 224.022 116.144 222.977 116.144C222.145 116.144 221.398 115.957 220.737 115.584C220.086 115.211 219.574 114.683 219.201 114C218.828 113.307 218.641 112.507 218.641 111.6C218.641 110.693 218.822 109.899 219.185 109.216C219.548 108.533 220.054 108.011 220.705 107.648C221.366 107.275 222.124 107.088 222.977 107.088C223.809 107.088 224.545 107.269 225.185 107.632C225.825 107.995 226.316 108.496 226.657 109.136C227.009 109.765 227.185 110.48 227.185 111.28ZM225.681 110.976C225.681 110.421 225.558 109.947 225.313 109.552C225.068 109.147 224.732 108.843 224.305 108.64C223.889 108.427 223.425 108.32 222.913 108.32C222.177 108.32 221.548 108.555 221.025 109.024C220.513 109.493 220.22 110.144 220.145 110.976H225.681Z" fill="#2A00A2"/>
<path d="M36.019 6.35423H36.0188C19.6496 6.35423 6.37988 19.6284 6.37988 36.0029C6.37988 52.3773 19.6496 65.6515 36.0188 65.6515C52.388 65.6515 65.6576 52.3773 65.6576 36.0029V36.0026C65.6398 19.6357 52.3807 6.37206 36.019 6.35423ZM51.4146 23.1535H51.4129C48.1832 23.1535 45.5651 25.7726 45.565 29.0032L45.5651 29.0044C45.5699 29.9805 45.8217 30.9383 46.2959 31.7888L37.4046 40.6831C35.6759 39.7092 33.5627 39.7092 31.834 40.6831L25.7416 34.5887C26.2158 33.7381 26.4677 32.7804 26.4725 31.8043L26.4725 31.8034C26.4765 28.5789 23.8667 25.9616 20.6431 25.9575C18.0422 25.9543 15.7617 27.6712 15.0349 30.1531H10.3451C13.0816 18.1869 23.7204 9.67229 36.0188 9.6541C44.5119 9.66089 52.475 13.7678 57.407 20.674L54.1936 23.8885C53.345 23.4136 52.3892 23.1602 51.4146 23.1535ZM28.7714 45.801V45.8023C28.7714 49.0329 31.3895 51.652 34.6193 51.652C37.849 51.652 40.4672 49.0329 40.4672 45.8023L40.4672 45.801C40.4624 44.825 40.2105 43.8672 39.7363 43.0166L48.6283 34.1217C49.4785 34.596 50.436 34.848 51.4117 34.8528H51.4129C54.6427 34.8528 57.2608 32.2337 57.2608 29.003L57.2608 29.0018C57.256 28.0258 57.0041 27.068 56.53 26.2175L59.209 23.5388C66.0347 36.2025 61.4267 52.0381 48.8169 59.0418C44.902 61.2163 40.4971 62.3555 36.019 62.3515H36.0186C21.4815 62.3614 9.6887 50.581 9.67882 36.0389C9.67819 35.1753 9.7201 34.3122 9.8043 33.4528H15.0351C15.7615 35.9272 18.0302 37.6428 20.6236 37.6527L20.6258 37.6526C21.6015 37.6478 22.559 37.3959 23.4092 36.9216L29.5023 43.0166C29.0281 43.8672 28.7762 44.825 28.7714 45.801ZM53.9619 29.0032C53.9619 30.4116 52.8207 31.5531 51.4129 31.5531C50.0052 31.5531 48.864 30.4116 48.864 29.0032C48.864 27.5948 50.0052 26.4533 51.4129 26.4533C52.8207 26.4533 53.9619 27.5948 53.9619 29.0032ZM37.1682 45.8024C37.1682 47.2108 36.027 48.3523 34.6193 48.3523C33.2115 48.3523 32.0703 47.2108 32.0703 45.8024C32.0703 44.394 33.2115 43.2526 34.6193 43.2526C36.027 43.2526 37.1682 44.394 37.1682 45.8024ZM23.1735 31.8031C23.1735 33.2115 22.0323 34.3529 20.6246 34.3529C19.2168 34.3529 18.0756 33.2115 18.0756 31.8031C18.0756 30.3947 19.2168 29.2532 20.6246 29.2532C22.0323 29.2532 23.1735 30.3947 23.1735 31.8031Z" fill="#2A00A2" stroke="#2A00A2" stroke-width="0.5"/>
<path d="M62.7652 58.5307L62.9566 58.6915C62.9566 58.6915 62.9566 58.6915 62.9566 58.6915C62.6979 58.9996 62.4356 59.3042 62.1659 59.6037L62.1644 59.6054C62.076 59.7017 61.986 59.7971 61.8975 59.8908C61.8452 59.9462 61.7935 60.001 61.743 60.0551L61.7428 60.0553C61.2016 60.6332 60.6422 61.1929 60.0644 61.7342L60.0642 61.7344C60.0101 61.7849 59.9553 61.8367 59.9 61.889C59.8063 61.9775 59.711 62.0676 59.6147 62.1559L59.613 62.1574C59.3136 62.4273 59.009 62.6896 58.7011 62.9485L58.7009 62.9486C58.4916 63.1242 58.2646 63.3118 58.0679 63.469C57.9874 63.5333 57.9087 63.5995 57.8272 63.6681C57.8134 63.6797 57.7995 63.6914 57.7854 63.7032C57.7603 63.7244 57.7348 63.7457 57.7091 63.7671L61.209 67.2682L67.2735 61.2017L63.4772 58.0579M62.7652 58.5307C62.9407 58.3235 63.1128 58.114 63.2816 57.9021M62.7652 58.5307C62.5077 58.8373 62.2474 59.1396 61.9801 59.4364M62.7652 58.5307L61.9801 59.4364M63.2816 57.9021L63.4771 58.0579C63.4771 58.0579 63.4772 58.0579 63.4772 58.0579M63.2816 57.9021L63.4772 58.0579M63.2816 57.9021C63.3479 57.8189 63.4166 57.7372 63.4853 57.6555C63.5223 57.6115 63.5593 57.5674 63.596 57.5231L63.7735 57.7006C63.7522 57.7263 63.731 57.7517 63.71 57.7767L63.6764 57.8167C63.6075 57.8986 63.5412 57.9774 63.4772 58.0579M61.9801 59.4364C61.8927 59.5318 61.8052 59.6244 61.7178 59.717M61.9801 59.4364L61.7178 59.717M61.7178 59.717C61.6653 59.7726 61.6128 59.8282 61.5603 59.8844L61.7178 59.717ZM65.1574 9.40534C65.1622 10.3814 65.4141 11.3392 65.8883 12.1897L63.766 14.3127C51.8752 -0.932515 29.8955 -3.75633 14.5335 8.03897C-0.903913 19.8921 -3.81267 42.0198 8.03652 57.4623L8.23486 57.3101L8.03652 57.4623C19.1803 71.9852 39.5735 75.5486 54.9723 65.6957L59.0533 69.7781L61.0322 71.7576L72.2979 83.0271C75.2608 85.991 80.0643 85.991 83.0272 83.0271C85.9901 80.0633 85.9901 75.2583 83.0272 72.2945L71.7615 61.025L69.7826 59.0455L65.7017 54.9632C73.1066 43.4092 73.1066 28.5968 65.7017 17.0426L68.222 14.5215C69.0717 14.9959 70.0287 15.2484 71.0039 15.2539L71.0062 15.2539C73.5997 15.244 75.8683 13.5286 76.5948 11.054H85H85.25V10.804V8.00418V7.75418H85H76.5948C75.8683 5.27966 73.5997 3.56418 71.0062 3.55437H71.0053C67.7755 3.55437 65.1574 6.17349 65.1574 9.40411V9.40534ZM80.6947 74.6275L80.6968 74.6295C82.3905 76.2857 82.4214 79.0019 80.7657 80.6961C79.1101 82.3903 76.395 82.4212 74.7013 80.7651L74.7008 80.7645C74.6782 80.7426 74.6557 80.7199 74.6323 80.696L74.6304 80.6941L63.5414 69.6014L69.6058 63.5349L80.6947 74.6275ZM60.2013 56.8356L60.2007 56.8362C59.7758 57.3307 59.3371 57.8103 58.8845 58.275L58.884 58.2756C58.6871 58.4789 58.487 58.6792 58.2837 58.8761L58.2828 58.8769C57.8205 59.3292 57.3417 59.7676 56.846 60.1922C56.7602 60.2643 56.6755 60.3394 56.5934 60.412C56.5103 60.4855 56.4297 60.5566 56.3482 60.6246C55.7734 61.0999 55.1753 61.5511 54.5631 61.9895C40.1882 72.2626 20.2096 68.9335 9.93993 54.5537C-0.329812 40.1739 2.99823 20.1886 17.3732 9.9155C31.7482 -0.357595 51.7267 2.9713 61.9964 17.3512C69.943 28.4782 69.943 43.4268 61.9964 54.5537C61.5579 55.1664 61.1067 55.7649 60.6314 56.3401C60.5432 56.4469 60.4538 56.5482 60.3614 56.6528C60.3091 56.7122 60.2558 56.7725 60.2013 56.8356ZM71.0053 6.85424C72.413 6.85424 73.5542 7.9957 73.5542 9.40411C73.5542 10.8125 72.413 11.954 71.0053 11.954C69.5976 11.954 68.4564 10.8125 68.4564 9.40411C68.4564 7.99571 69.5977 6.85424 71.0053 6.85424Z" fill="#2A00A2" stroke="#2A00A2" stroke-width="0.5"/>
<path d="M99.5822 53.384C100.966 53.384 102.262 53.12 103.47 52.592C104.678 52.064 105.738 51.332 106.65 50.396C107.562 49.452 108.274 48.36 108.786 47.12C109.306 45.872 109.566 44.536 109.566 43.112C109.566 41.68 109.306 40.344 108.786 39.104C108.274 37.864 107.562 36.776 106.65 35.84C105.738 34.896 104.678 34.16 103.47 33.632C102.262 33.104 100.966 32.84 99.5822 32.84C98.1982 32.84 96.9022 33.104 95.6942 33.632C94.4862 34.16 93.4262 34.896 92.5142 35.84C91.6022 36.776 90.8862 37.864 90.3662 39.104C89.8542 40.344 89.5982 41.68 89.5982 43.112C89.5982 44.536 89.8542 45.872 90.3662 47.12C90.8862 48.36 91.6022 49.452 92.5142 50.396C93.4262 51.332 94.4862 52.064 95.6942 52.592C96.9022 53.12 98.1982 53.384 99.5822 53.384ZM99.5822 50.36C98.3262 50.36 97.2022 50.044 96.2102 49.412C95.2182 48.78 94.4342 47.92 93.8582 46.832C93.2822 45.736 92.9942 44.496 92.9942 43.112C92.9942 41.728 93.2822 40.492 93.8582 39.404C94.4342 38.308 95.2182 37.444 96.2102 36.812C97.2022 36.18 98.3262 35.864 99.5822 35.864C100.846 35.864 101.974 36.18 102.966 36.812C103.958 37.444 104.742 38.308 105.318 39.404C105.894 40.492 106.182 41.728 106.182 43.112C106.182 44.496 105.894 45.736 105.318 46.832C104.742 47.92 103.958 48.78 102.966 49.412C101.974 50.044 100.846 50.36 99.5822 50.36ZM112.179 53H115.167V45.68C115.167 45.2 115.307 44.752 115.587 44.336C115.875 43.912 116.247 43.572 116.703 43.316C117.159 43.052 117.643 42.92 118.155 42.92C118.459 42.92 118.783 42.968 119.127 43.064C119.471 43.16 119.775 43.288 120.039 43.448L121.275 40.916C120.971 40.74 120.603 40.6 120.171 40.496C119.747 40.384 119.331 40.328 118.923 40.328C117.299 40.328 116.047 41.052 115.167 42.5V40.712H112.179V53ZM127.679 53.384C128.607 53.384 129.463 53.18 130.247 52.772C131.039 52.356 131.707 51.776 132.251 51.032V53H135.239V40.712H132.251V42.596C131.779 41.884 131.135 41.328 130.319 40.928C129.511 40.528 128.631 40.328 127.679 40.328C126.495 40.328 125.443 40.612 124.523 41.18C123.611 41.748 122.891 42.524 122.363 43.508C121.843 44.492 121.583 45.604 121.583 46.844C121.583 48.108 121.851 49.232 122.387 50.216C122.931 51.2 123.663 51.976 124.583 52.544C125.511 53.104 126.543 53.384 127.679 53.384ZM128.531 50.828C127.795 50.828 127.139 50.656 126.563 50.312C125.987 49.968 125.535 49.5 125.207 48.908C124.879 48.308 124.715 47.624 124.715 46.856C124.715 46.088 124.879 45.404 125.207 44.804C125.535 44.204 125.987 43.736 126.563 43.4C127.139 43.056 127.795 42.884 128.531 42.884C129.275 42.884 129.931 43.056 130.499 43.4C131.075 43.736 131.523 44.204 131.843 44.804C132.171 45.396 132.335 46.08 132.335 46.856C132.335 47.624 132.171 48.308 131.843 48.908C131.523 49.508 131.075 49.98 130.499 50.324C129.931 50.66 129.275 50.828 128.531 50.828ZM128.927 39.116L132.635 34.58L130.547 33.032L127.607 38.072L128.927 39.116ZM144.361 53.384C145.169 53.384 145.933 53.264 146.653 53.024C147.373 52.792 147.977 52.492 148.465 52.124L147.385 50.108C146.697 50.644 145.841 50.912 144.817 50.912C144.001 50.912 143.281 50.732 142.657 50.372C142.041 50.012 141.557 49.528 141.205 48.92C140.861 48.304 140.689 47.616 140.689 46.856C140.689 46.136 140.853 45.468 141.181 44.852C141.517 44.236 141.989 43.74 142.597 43.364C143.213 42.988 143.945 42.8 144.793 42.8C145.833 42.8 146.701 43.068 147.397 43.604L148.465 41.588C147.985 41.212 147.377 40.908 146.641 40.676C145.913 40.444 145.149 40.328 144.349 40.328C143.381 40.328 142.485 40.5 141.661 40.844C140.837 41.188 140.117 41.66 139.501 42.26C138.893 42.86 138.417 43.556 138.073 44.348C137.737 45.132 137.569 45.968 137.569 46.856C137.569 47.776 137.745 48.632 138.097 49.424C138.449 50.216 138.937 50.908 139.561 51.5C140.185 52.092 140.905 52.556 141.721 52.892C142.545 53.22 143.425 53.384 144.361 53.384ZM156.128 53.384C158.232 53.384 159.744 52.952 160.664 52.088C161.592 51.216 162.056 49.78 162.056 47.78V40.712H159.068V47.108C159.068 48.5 158.844 49.488 158.396 50.072C157.956 50.648 157.2 50.936 156.128 50.936C155.064 50.936 154.308 50.648 153.86 50.072C153.412 49.488 153.188 48.5 153.188 47.108V40.712H150.2V47.78C150.2 49.78 150.66 51.216 151.58 52.088C152.5 52.952 154.016 53.384 156.128 53.384ZM165.164 53H168.152V32.36H165.164V53ZM177.567 53.384C178.895 53.384 180.091 53.108 181.155 52.556C182.219 52.004 183.063 51.236 183.687 50.252C184.311 49.268 184.623 48.136 184.623 46.856C184.623 45.568 184.311 44.436 183.687 43.46C183.063 42.476 182.219 41.708 181.155 41.156C180.091 40.604 178.895 40.328 177.567 40.328C176.239 40.328 175.039 40.604 173.967 41.156C172.903 41.708 172.059 42.476 171.435 43.46C170.811 44.436 170.499 45.568 170.499 46.856C170.499 48.136 170.811 49.268 171.435 50.252C172.059 51.236 172.903 52.004 173.967 52.556C175.039 53.108 176.239 53.384 177.567 53.384ZM177.567 50.816C176.823 50.816 176.151 50.648 175.551 50.312C174.959 49.968 174.487 49.5 174.135 48.908C173.791 48.308 173.619 47.624 173.619 46.856C173.619 46.08 173.791 45.396 174.135 44.804C174.487 44.212 174.959 43.748 175.551 43.412C176.151 43.068 176.823 42.896 177.567 42.896C178.319 42.896 178.991 43.068 179.583 43.412C180.183 43.748 180.655 44.212 180.999 44.804C181.343 45.396 181.515 46.08 181.515 46.856C181.515 47.624 181.343 48.308 180.999 48.908C180.655 49.5 180.183 49.968 179.583 50.312C178.991 50.648 178.319 50.816 177.567 50.816Z" fill="#2A00A2"/>
</svg>
