<svg width="141" height="81" viewBox="0 0 141 81" fill="none" xmlns="http://www.w3.org/2000/svg">
<path d="M69.9435 67.5739C71.0968 67.5739 72.1768 67.3539 73.1835 66.9139C74.1902 66.4739 75.0735 65.8639 75.8335 65.0839C76.5935 64.2972 77.1868 63.3872 77.6135 62.3539C78.0469 61.3139 78.2635 60.2006 78.2635 59.0139C78.2635 57.8206 78.0469 56.7072 77.6135 55.6739C77.1868 54.6406 76.5935 53.7339 75.8335 52.9539C75.0735 52.1672 74.1902 51.5539 73.1835 51.1139C72.1768 50.6739 71.0968 50.4539 69.9435 50.4539C68.7902 50.4539 67.7102 50.6739 66.7035 51.1139C65.6968 51.5539 64.8135 52.1672 64.0535 52.9539C63.2935 53.7339 62.6968 54.6406 62.2635 55.6739C61.8368 56.7072 61.6235 57.8206 61.6235 59.0139C61.6235 60.2006 61.8368 61.3139 62.2635 62.3539C62.6968 63.3872 63.2935 64.2972 64.0535 65.0839C64.8135 65.8639 65.6968 66.4739 66.7035 66.9139C67.7102 67.3539 68.7902 67.5739 69.9435 67.5739ZM69.9435 65.0539C68.8968 65.0539 67.9602 64.7906 67.1335 64.2639C66.3068 63.7372 65.6535 63.0206 65.1735 62.1139C64.6935 61.2006 64.4535 60.1672 64.4535 59.0139C64.4535 57.8606 64.6935 56.8306 65.1735 55.9239C65.6535 55.0106 66.3068 54.2906 67.1335 53.7639C67.9602 53.2372 68.8968 52.9739 69.9435 52.9739C70.9968 52.9739 71.9368 53.2372 72.7635 53.7639C73.5902 54.2906 74.2435 55.0106 74.7235 55.9239C75.2035 56.8306 75.4435 57.8606 75.4435 59.0139C75.4435 60.1672 75.2035 61.2006 74.7235 62.1139C74.2435 63.0206 73.5902 63.7372 72.7635 64.2639C71.9368 64.7906 70.9968 65.0539 69.9435 65.0539ZM80.2327 67.2539H82.7227V61.1539C82.7227 60.7539 82.8394 60.3806 83.0727 60.0339C83.3127 59.6806 83.6227 59.3972 84.0027 59.1839C84.3827 58.9639 84.7861 58.8539 85.2127 58.8539C85.4661 58.8539 85.7361 58.8939 86.0227 58.9739C86.3094 59.0539 86.5627 59.1606 86.7827 59.2939L87.8127 57.1839C87.5594 57.0372 87.2527 56.9206 86.8927 56.8339C86.5394 56.7406 86.1927 56.6939 85.8527 56.6939C84.4994 56.6939 83.4561 57.2972 82.7227 58.5039V57.0139H80.2327V67.2539ZM92.9412 67.5739C93.7145 67.5739 94.4278 67.4039 95.0812 67.0639C95.7412 66.7172 96.2978 66.2339 96.7512 65.6139V67.2539H99.2412V57.0139H96.7512V58.5839C96.3578 57.9906 95.8212 57.5272 95.1412 57.1939C94.4678 56.8606 93.7345 56.6939 92.9412 56.6939C91.9545 56.6939 91.0778 56.9306 90.3112 57.4039C89.5512 57.8772 88.9512 58.5239 88.5112 59.3439C88.0778 60.1639 87.8612 61.0906 87.8612 62.1239C87.8612 63.1772 88.0845 64.1139 88.5312 64.9339C88.9845 65.7539 89.5945 66.4006 90.3612 66.8739C91.1345 67.3406 91.9945 67.5739 92.9412 67.5739ZM93.6512 65.4439C93.0378 65.4439 92.4912 65.3006 92.0112 65.0139C91.5312 64.7272 91.1545 64.3372 90.8812 63.8439C90.6078 63.3439 90.4712 62.7739 90.4712 62.1339C90.4712 61.4939 90.6078 60.9239 90.8812 60.4239C91.1545 59.9239 91.5312 59.5339 92.0112 59.2539C92.4912 58.9672 93.0378 58.8239 93.6512 58.8239C94.2712 58.8239 94.8178 58.9672 95.2912 59.2539C95.7712 59.5339 96.1445 59.9239 96.4112 60.4239C96.6845 60.9172 96.8212 61.4872 96.8212 62.1339C96.8212 62.7739 96.6845 63.3439 96.4112 63.8439C96.1445 64.3439 95.7712 64.7372 95.2912 65.0239C94.8178 65.3039 94.2712 65.4439 93.6512 65.4439ZM93.9812 55.6839L97.0712 51.9039L95.3312 50.6139L92.8812 54.8139L93.9812 55.6839ZM106.634 67.5739C107.307 67.5739 107.944 67.4739 108.544 67.2739C109.144 67.0806 109.647 66.8306 110.054 66.5239L109.154 64.8439C108.58 65.2906 107.867 65.5139 107.014 65.5139C106.334 65.5139 105.734 65.3639 105.214 65.0639C104.7 64.7639 104.297 64.3606 104.004 63.8539C103.717 63.3406 103.574 62.7672 103.574 62.1339C103.574 61.5339 103.71 60.9772 103.984 60.4639C104.264 59.9506 104.657 59.5372 105.164 59.2239C105.677 58.9106 106.287 58.7539 106.994 58.7539C107.86 58.7539 108.584 58.9772 109.164 59.4239L110.054 57.7439C109.654 57.4306 109.147 57.1772 108.534 56.9839C107.927 56.7906 107.29 56.6939 106.624 56.6939C105.817 56.6939 105.07 56.8372 104.384 57.1239C103.697 57.4106 103.097 57.8039 102.584 58.3039C102.077 58.8039 101.68 59.3839 101.394 60.0439C101.114 60.6972 100.974 61.3939 100.974 62.1339C100.974 62.9006 101.12 63.6139 101.414 64.2739C101.707 64.9339 102.114 65.5106 102.634 66.0039C103.154 66.4972 103.754 66.8839 104.434 67.1639C105.12 67.4372 105.854 67.5739 106.634 67.5739ZM116.232 67.5739C117.985 67.5739 119.245 67.2139 120.012 66.4939C120.785 65.7672 121.172 64.5706 121.172 62.9039V57.0139H118.682V62.3439C118.682 63.5039 118.495 64.3272 118.122 64.8139C117.755 65.2939 117.125 65.5339 116.232 65.5339C115.345 65.5339 114.715 65.2939 114.342 64.8139C113.968 64.3272 113.782 63.5039 113.782 62.3439V57.0139H111.292V62.9039C111.292 64.5706 111.675 65.7672 112.442 66.4939C113.208 67.2139 114.472 67.5739 116.232 67.5739ZM123.553 67.2539H126.043V50.0539H123.553V67.2539ZM133.681 67.5739C134.787 67.5739 135.784 67.3439 136.671 66.8839C137.557 66.4239 138.261 65.7839 138.781 64.9639C139.301 64.1439 139.561 63.2006 139.561 62.1339C139.561 61.0606 139.301 60.1172 138.781 59.3039C138.261 58.4839 137.557 57.8439 136.671 57.3839C135.784 56.9239 134.787 56.6939 133.681 56.6939C132.574 56.6939 131.574 56.9239 130.681 57.3839C129.794 57.8439 129.091 58.4839 128.571 59.3039C128.051 60.1172 127.791 61.0606 127.791 62.1339C127.791 63.2006 128.051 64.1439 128.571 64.9639C129.091 65.7839 129.794 66.4239 130.681 66.8839C131.574 67.3439 132.574 67.5739 133.681 67.5739ZM133.681 65.4339C133.061 65.4339 132.501 65.2939 132.001 65.0139C131.507 64.7272 131.114 64.3372 130.821 63.8439C130.534 63.3439 130.391 62.7739 130.391 62.1339C130.391 61.4872 130.534 60.9172 130.821 60.4239C131.114 59.9306 131.507 59.5439 132.001 59.2639C132.501 58.9772 133.061 58.8339 133.681 58.8339C134.307 58.8339 134.867 58.9772 135.361 59.2639C135.861 59.5439 136.254 59.9306 136.541 60.4239C136.827 60.9172 136.971 61.4872 136.971 62.1339C136.971 62.7739 136.827 63.3439 136.541 63.8439C136.254 64.3372 135.861 64.7272 135.361 65.0139C134.867 65.2939 134.307 65.4339 133.681 65.4339Z" fill="#2A00A2"/>
<path d="M3.03788 16.0403C5.5099 9.27774 10.1619 -2.45404 20.0814 0.818425C23.9432 2.09249 25.156 6.93141 29.038 7.53457C32.7046 8.10422 35.8083 4.69218 39.2966 4.04507C43.63 3.24128 48.2158 4.3166 49.8622 8.32008C51.832 13.11 46.0259 18.4846 47.4296 22.8585C49.745 30.0731 58.3037 18.1158 59.8341 29.7585C61.9757 46.0505 42.9034 75.0538 30.0547 51.2036C23.5395 39.11 16.7113 47.5913 6.55531 41.5754C-3.08845 35.8631 -0.103691 24.6341 3.03788 16.0403Z" fill="url(#paint0_linear)"/>
<path opacity="0.1" d="M53.5052 42.0181L42.7281 31.8134C46.4603 27.1969 46.097 20.5641 41.6369 16.3407C37.7858 12.6942 32.0374 11.94 27.4008 14.0768C26.2375 12.2296 24.1074 10.9917 21.671 10.9917C17.9887 10.9917 15.0036 13.8183 15.0036 17.305C15.0036 20.4023 17.36 22.977 20.4675 23.5137C20.4026 24.1426 20.3914 24.7754 20.433 25.4058H7.78454C6.80311 25.4058 6.00732 26.1581 6.00732 27.0874V53.6937C6.00732 54.623 6.80311 55.3754 7.78454 55.3754H35.8834C36.8636 55.3754 37.6594 54.623 37.6594 53.6937V35.5259C38.6184 35.1449 39.5372 34.6453 40.3908 34.0267L51.168 44.2314C51.8134 44.8425 52.8599 44.8425 53.5054 44.2314C54.1508 43.6202 54.1508 42.6292 53.5052 42.0181Z" fill="#5F2EEA"/>
<path d="M37.6599 24.158V50.7643C37.6599 51.6936 36.8641 52.4459 35.8839 52.4459H7.78503C6.8036 52.4459 6.00781 51.6936 6.00781 50.7643V24.158C6.00781 23.2287 6.8036 22.4763 7.78503 22.4763H35.8839C36.8641 22.4763 37.6599 23.2287 37.6599 24.158Z" fill="white"/>
<path d="M33.2178 26.6815V48.2407H10.4492V26.6815H33.2178Z" fill="#6583FE"/>
<path d="M35.9082 27.1227L27.4986 35.0856L11.4479 50.2825L8.30811 47.3094L23.8551 32.5871L32.7671 24.1484L35.9082 27.1227Z" fill="white"/>
<path d="M53.5054 41.3018C52.86 41.9129 51.8135 41.9129 51.1679 41.3018L39.0312 29.8098L41.3687 27.5966L53.5054 39.0886C54.1509 39.6997 54.1509 40.6907 53.5054 41.3018Z" fill="white"/>
<path d="M47.2998 37.6392L51.1677 41.3017C51.8131 41.9128 52.8597 41.9128 53.5052 41.3017C54.1506 40.6904 54.1506 39.6996 53.5052 39.0884L49.6373 35.4259L47.2998 37.6392Z" fill="#6583FE"/>
<path d="M32.8434 33.5126C39.7115 33.5126 45.2791 28.2407 45.2791 21.7374C45.2791 15.2342 39.7115 9.96228 32.8434 9.96228C25.9754 9.96228 20.4077 15.2342 20.4077 21.7374C20.4077 28.2407 25.9754 33.5126 32.8434 33.5126Z" fill="white"/>
<path d="M32.8437 30.7999C38.1295 30.7999 42.4144 26.7425 42.4144 21.7375C42.4144 16.7325 38.1295 12.6752 32.8437 12.6752C27.5579 12.6752 23.2729 16.7325 23.2729 21.7375C23.2729 26.7425 27.5579 30.7999 32.8437 30.7999Z" fill="#6583FE"/>
<path d="M39.4951 20.2099V28.2513C35.7501 31.6849 29.7748 31.6486 26.0756 28.1459C23.3293 25.5455 22.6016 21.758 23.8912 18.5271H37.7191C38.7005 18.5271 39.4951 19.2806 39.4951 20.2099Z" fill="white"/>
<path d="M33.0673 24.1251V30.7978C30.5438 30.8529 28.0017 29.9693 26.076 28.1458C24.8544 26.9892 24.0326 25.5982 23.6094 24.1251H33.0673Z" fill="#6583FE"/>
<path d="M32.8434 31.3813C30.2341 31.3813 27.6247 30.4408 25.6383 28.56C23.7137 26.7377 22.6538 24.3147 22.6538 21.7377C22.6538 19.1606 23.7138 16.7376 25.6383 14.9153C29.6111 11.1536 36.0757 11.1535 40.0484 14.9153C41.973 16.7376 43.0329 19.1606 43.0329 21.7377C43.0329 24.3147 41.9729 26.7377 40.0484 28.56C38.062 30.4408 35.4526 31.3813 32.8434 31.3813ZM32.8434 13.2651C30.5511 13.2651 28.2586 14.0914 26.5134 15.7438C24.8227 17.3449 23.8914 19.4735 23.8914 21.7375C23.8914 24.0016 24.8226 26.1302 26.5134 27.7312C30.0039 31.0361 35.683 31.0361 39.1734 27.7312C40.8641 26.1302 41.7954 24.0016 41.7954 21.7375C41.7954 19.4735 40.8642 17.3449 39.1734 15.7438C37.4281 14.0914 35.1358 13.2651 32.8434 13.2651Z" fill="#5F2EEA"/>
<path d="M24.1352 20.2513C27.5561 18.9612 29.2248 15.2895 27.8623 12.0504C26.4999 8.81122 22.6222 7.23119 19.2014 8.52127C15.7805 9.81136 14.1118 13.483 15.4743 16.7222C16.8367 19.9614 20.7144 21.5414 24.1352 20.2513Z" fill="#6583FE"/>
<path d="M53.9433 38.6741L45.7025 30.8711C45.461 30.6423 45.0689 30.6423 44.8275 30.8711C44.5858 31.1 44.5858 31.471 44.8275 31.6997L53.0681 39.5028C53.4714 39.8846 53.4714 40.5057 53.0683 40.8874C52.873 41.0723 52.6132 41.1741 52.3371 41.1741C52.0608 41.1741 51.8012 41.0723 51.6059 40.8874L41.3149 31.143C41.5751 30.9325 41.8288 30.711 42.0749 30.478C47.1648 25.6585 47.1648 17.8164 42.0749 12.9968C38.2792 9.40264 32.5201 8.38487 27.6251 10.4053C26.3047 8.6353 24.129 7.47607 21.6715 7.47607C17.6538 7.47607 14.3853 10.571 14.3853 14.3753C14.3853 17.5706 16.6916 20.2647 19.8105 21.0455C19.6026 24.5619 20.9745 27.9796 23.6131 30.478C26.158 32.8879 29.5009 34.0927 32.844 34.0927C34.2634 34.0927 35.6826 33.8746 37.041 33.4401V50.7636C37.041 51.3682 36.5216 51.8599 35.8832 51.8599H7.78457C7.14621 51.8599 6.62678 51.368 6.62678 50.7636V24.1577C6.62678 23.5532 7.14621 23.0615 7.78457 23.0615H16.8696C17.2114 23.0615 17.4884 22.7991 17.4884 22.4755C17.4884 22.152 17.2114 21.8896 16.8696 21.8896H7.78457C6.46366 21.8896 5.38916 22.9071 5.38916 24.1577V50.7637C5.38916 52.0145 6.46378 53.0319 7.78457 53.0319H35.8831C37.204 53.0319 38.2785 52.0143 38.2785 50.7637V32.9765C38.9883 32.6697 39.6748 32.2997 40.3283 31.8662L50.7307 41.716C51.1597 42.1223 51.7301 42.346 52.337 42.346C52.9436 42.346 53.5142 42.1223 53.9434 41.716C54.8289 40.8774 54.8289 39.5129 53.9433 38.6741ZM15.6228 14.3753C15.6228 11.2173 18.3363 8.64795 21.6714 8.64795C25.0065 8.64795 27.72 11.2172 27.72 14.3753C27.72 17.5334 25.0065 20.1026 21.6714 20.1026C18.3363 20.1026 15.6228 17.5334 15.6228 14.3753ZM24.4881 29.6494C22.1338 27.4201 20.894 24.3822 21.0393 21.2469C21.2479 21.264 21.4584 21.2746 21.6715 21.2746C25.6892 21.2746 28.9577 18.1797 28.9577 14.3754C28.9577 13.3198 28.7053 12.3191 28.2556 11.4237C32.657 9.66913 37.799 10.6053 41.1999 13.8257C45.8073 18.1883 45.8073 25.2869 41.1999 29.6495C36.5922 34.0122 29.0955 34.0122 24.4881 29.6494Z" fill="#5F2EEA"/>
<path d="M20.6865 17.9399C20.6633 17.9399 20.64 17.939 20.6166 17.937C20.3165 17.912 20.0567 17.7293 19.9448 17.4645L19.0805 15.4184C19.063 15.3769 19.0211 15.35 18.9739 15.35C18.5328 15.35 18.1753 15.0115 18.1753 14.5938C18.1753 14.1762 18.5328 13.8376 18.9739 13.8376C19.678 13.8376 20.302 14.2376 20.5635 14.8567L20.841 15.5136L23.6891 11.1683C23.9218 10.8135 24.4141 10.7044 24.7888 10.9246C25.1635 11.1449 25.2787 11.611 25.0461 11.9659L21.3646 17.5825C21.2185 17.8059 20.961 17.9399 20.6865 17.9399Z" fill="#5F2EEA"/>
<path d="M52.795 22.3877C52.6367 22.3877 52.4781 22.3305 52.3575 22.2161L51.6192 21.5172L50.881 22.2161C50.6395 22.4449 50.2474 22.4449 50.006 22.2161C49.7643 21.9873 49.7643 21.6163 50.006 21.3875L51.1817 20.2742C51.4232 20.0455 51.8153 20.0455 52.0567 20.2742L53.2325 21.3875C53.4742 21.6164 53.4742 21.9874 53.2325 22.2161C53.1118 22.3305 52.9534 22.3877 52.795 22.3877Z" fill="#6583FE"/>
<path d="M10.4503 18.0414C9.97098 18.0414 9.52024 17.8647 9.18125 17.5436C8.84239 17.2227 8.65576 16.796 8.65576 16.3422C8.65576 15.8883 8.84239 15.4616 9.18138 15.1406C9.88088 14.4782 11.0197 14.4782 11.7192 15.1406C12.0582 15.4616 12.2449 15.8883 12.2449 16.3422C12.2449 16.796 12.0582 17.2228 11.7192 17.5437C11.3804 17.8646 10.9296 18.0414 10.4503 18.0414ZM10.4503 15.8151C10.3077 15.8151 10.165 15.8665 10.0564 15.9693C9.95118 16.0689 9.89338 16.2013 9.89338 16.3422C9.89338 16.483 9.9513 16.6155 10.0564 16.7151C10.1617 16.8148 10.3014 16.8695 10.4503 16.8695C10.5991 16.8695 10.7389 16.8147 10.8441 16.7151C10.9494 16.6155 11.0072 16.483 11.0072 16.3422C11.0072 16.2013 10.9493 16.0689 10.8442 15.9693C10.7356 15.8665 10.5929 15.8151 10.4503 15.8151Z" fill="#6583FE"/>
<path d="M55.7657 29.2957C55.2864 29.2957 54.8357 29.119 54.4967 28.7979C54.1578 28.477 53.9712 28.0503 53.9712 27.5964C53.9712 27.1426 54.1578 26.7159 54.4968 26.3949C55.1963 25.7325 56.335 25.7325 57.0347 26.3949C57.3736 26.7159 57.5603 27.1426 57.5603 27.5964C57.5603 28.0503 57.3736 28.4771 57.0347 28.798C56.6958 29.1189 56.2451 29.2957 55.7657 29.2957ZM55.7657 27.0695C55.6232 27.0695 55.4805 27.1208 55.3718 27.2237C55.2666 27.3233 55.2088 27.4557 55.2088 27.5966C55.2088 27.7374 55.2667 27.8698 55.3718 27.9695C55.4771 28.0692 55.6169 28.1239 55.7657 28.1239C55.9145 28.1239 56.0543 28.0691 56.1595 27.9695C56.2649 27.8698 56.3227 27.7374 56.3227 27.5966C56.3227 27.4557 56.2647 27.3233 56.1597 27.2237C56.051 27.1208 55.9084 27.0695 55.7657 27.0695Z" fill="#6583FE"/>
<path d="M47.3016 51.9807C46.8419 51.9807 46.3824 51.8151 46.0326 51.4838C45.3329 50.8212 45.3329 49.7432 46.0326 49.0808C46.7321 48.4183 47.8707 48.4182 48.5704 49.0808C49.2701 49.7433 49.2701 50.8212 48.5704 51.4838C48.2206 51.8151 47.7611 51.9807 47.3016 51.9807ZM47.3016 49.7553C47.159 49.7553 47.0163 49.8066 46.9076 49.9095C46.6905 50.1151 46.6905 50.4496 46.9076 50.6553C47.125 50.8608 47.4779 50.8611 47.6952 50.6553C47.9123 50.4497 47.9123 50.1152 47.6952 49.9095C47.5866 49.8066 47.444 49.7553 47.3016 49.7553Z" fill="#6583FE"/>
<path d="M42.7618 54.8331C42.6035 54.8331 42.4449 54.776 42.3243 54.6616L41.586 53.9627L40.8478 54.6616C40.6063 54.8903 40.2142 54.8903 39.9728 54.6616C39.7311 54.4327 39.7311 54.0617 39.9728 53.8329L41.1485 52.7197C41.39 52.4909 41.7821 52.4909 42.0235 52.7197L43.1993 53.8329C43.441 54.0618 43.441 54.4328 43.1993 54.6616C43.0786 54.776 42.92 54.8331 42.7618 54.8331Z" fill="#6583FE"/>
<defs>
<linearGradient id="paint0_linear" x1="13.87" y1="49.4932" x2="37.9961" y2="16.577" gradientUnits="userSpaceOnUse">
<stop stop-color="#D2DEFF" stop-opacity="0"/>
<stop offset="1" stop-color="#B7C5FF"/>
</linearGradient>
</defs>
</svg>
