<svg width="13" height="17" viewBox="0 0 13 17" fill="none" xmlns="http://www.w3.org/2000/svg">
<path d="M2.5708 0.685181H10.5708C11.1012 0.685181 11.6099 0.895894 11.985 1.27097C12.3601 1.64604 12.5708 2.15475 12.5708 2.68518V14.6852C12.5708 15.2156 12.3601 15.7243 11.985 16.0994C11.6099 16.4745 11.1012 16.6852 10.5708 16.6852H2.5708C2.04037 16.6852 1.53166 16.4745 1.15659 16.0994C0.781514 15.7243 0.570801 15.2156 0.570801 14.6852V2.68518C0.570801 2.15475 0.781514 1.64604 1.15659 1.27097C1.53166 0.895894 2.04037 0.685181 2.5708 0.685181V0.685181ZM2.5708 1.68518C2.30558 1.68518 2.05123 1.79054 1.86369 1.97807C1.67616 2.16561 1.5708 2.41996 1.5708 2.68518V14.6852C1.5708 14.9504 1.67616 15.2048 1.86369 15.3923C2.05123 15.5798 2.30558 15.6852 2.5708 15.6852H10.5708C10.836 15.6852 11.0904 15.5798 11.2779 15.3923C11.4654 15.2048 11.5708 14.9504 11.5708 14.6852V2.68518C11.5708 2.41996 11.4654 2.16561 11.2779 1.97807C11.0904 1.79054 10.836 1.68518 10.5708 1.68518H2.5708Z" fill="black"/>
<path d="M9.57075 5.18518C9.57078 5.30221 9.52977 5.41554 9.45486 5.50544C9.37994 5.59534 9.27586 5.65612 9.16075 5.67718L9.07075 5.68518H4.07075C3.9458 5.68541 3.8253 5.63885 3.73296 5.55467C3.64063 5.47049 3.58316 5.35479 3.57187 5.23036C3.56058 5.10592 3.59629 4.98177 3.67197 4.88235C3.74764 4.78293 3.8578 4.71544 3.98075 4.69318L4.07075 4.68518H9.07075C9.20335 4.68518 9.33053 4.73786 9.4243 4.83163C9.51807 4.9254 9.57075 5.05257 9.57075 5.18518ZM9.57075 8.68518C9.57078 8.80221 9.52977 8.91554 9.45486 9.00544C9.37994 9.09534 9.27586 9.15612 9.16075 9.17718L9.07075 9.18518H4.07075C3.9458 9.18541 3.8253 9.13885 3.73296 9.05467C3.64063 8.97049 3.58316 8.85479 3.57187 8.73036C3.56058 8.60592 3.59629 8.48177 3.67197 8.38235C3.74764 8.28293 3.8578 8.21544 3.98075 8.19318L4.07075 8.18518H9.07075C9.20335 8.18518 9.33053 8.23786 9.4243 8.33163C9.51807 8.4254 9.57075 8.55257 9.57075 8.68518ZM9.57075 12.1852C9.57078 12.3022 9.52977 12.4155 9.45486 12.5054C9.37994 12.5953 9.27586 12.6561 9.16075 12.6772L9.07075 12.6852H4.07075C3.9458 12.6854 3.8253 12.6389 3.73296 12.5547C3.64063 12.4705 3.58316 12.3548 3.57187 12.2304C3.56058 12.1059 3.59629 11.9818 3.67197 11.8823C3.74764 11.7829 3.8578 11.7154 3.98075 11.6932L4.07075 11.6852H9.07075C9.20335 11.6852 9.33053 11.7379 9.4243 11.8316C9.51807 11.9254 9.57075 12.0526 9.57075 12.1852Z" fill="black"/>
</svg>
