<svg width="30.68rem" height="29.68rem" viewBox="0 0 491 475" fill="none" xmlns="http://www.w3.org/2000/svg">
<path d="M257.945 337.813H155.115L158.601 292.422H254.459L257.945 337.813Z" fill="#E6E6E6"/>
<path d="M264.916 332.575H149.887V343.05H264.916V332.575Z" fill="#E6E6E6"/>
<path d="M403.474 0H10.4572C7.68379 0 5.02396 1.1036 3.06285 3.068C1.10174 5.03241 0 7.69672 0 10.4748V250.523H413.932V10.4748C413.932 7.69672 412.83 5.03241 410.869 3.068C408.908 1.1036 406.248 0 403.474 0Z" fill="#3F3D56"/>
<path d="M0 250.523V289.803C0 291.179 0.270481 292.541 0.796005 293.812C1.32153 295.083 2.09181 296.237 3.06285 297.21C4.03389 298.183 5.18669 298.954 6.45542 299.481C7.72415 300.007 9.08396 300.278 10.4572 300.278H403.474C404.848 300.278 406.207 300.007 407.476 299.481C408.745 298.954 409.898 298.183 410.869 297.21C411.84 296.237 412.61 295.083 413.135 293.812C413.661 292.541 413.932 291.179 413.932 289.803V250.523H0Z" fill="#E6E6E6"/>
<path d="M393.889 21.8225H20.9146V231.319H393.889V21.8225Z" fill="#E6E6E6"/>
<path d="M207.402 285.439C213.177 285.439 217.859 280.749 217.859 274.964C217.859 269.179 213.177 264.489 207.402 264.489C201.626 264.489 196.944 269.179 196.944 274.964C196.944 280.749 201.626 285.439 207.402 285.439Z" fill="#3F3D56"/>
<path d="M32.5441 30.6712C33.6401 30.6712 34.5286 29.7812 34.5286 28.6833C34.5286 27.5855 33.6401 26.6955 32.5441 26.6955C31.4481 26.6955 30.5596 27.5855 30.5596 28.6833C30.5596 29.7812 31.4481 30.6712 32.5441 30.6712Z" fill="white"/>
<path d="M40.0763 30.6712C41.1723 30.6712 42.0608 29.7812 42.0608 28.6833C42.0608 27.5855 41.1723 26.6955 40.0763 26.6955C38.9803 26.6955 38.0918 27.5855 38.0918 28.6833C38.0918 29.7812 38.9803 30.6712 40.0763 30.6712Z" fill="white"/>
<path d="M47.6095 30.6712C48.7055 30.6712 49.594 29.7812 49.594 28.6833C49.594 27.5855 48.7055 26.6955 47.6095 26.6955C46.5135 26.6955 45.625 27.5855 45.625 28.6833C45.625 29.7812 46.5135 30.6712 47.6095 30.6712Z" fill="white"/>
<path d="M428.18 141.68C428.18 141.68 431.376 183.303 426.901 184.583C422.426 185.864 406.445 195.469 380.873 192.908C380.873 192.908 355.941 206.355 359.777 193.548C363.613 180.741 380.873 183.943 380.873 183.943C380.873 183.943 411.559 177.539 412.837 173.057C414.116 168.575 409.002 150.004 410.919 149.364C412.837 148.724 428.18 141.68 428.18 141.68Z" fill="#FFB8B8"/>
<path opacity="0.2" d="M426.03 142.218C426.03 142.218 429.226 183.841 424.751 185.122C420.276 186.403 404.294 196.008 378.723 193.447C378.723 193.447 353.791 206.894 357.627 194.087C361.462 181.28 378.723 184.482 378.723 184.482C378.723 184.482 409.408 178.078 410.687 173.596C411.965 169.113 406.851 150.543 408.769 149.902C410.687 149.262 426.03 142.218 426.03 142.218Z" fill="#231F20"/>
<path d="M390.134 209.176C390.134 209.176 392.381 279.23 396.216 288.195C399.411 295.662 401.276 320.013 401.809 327.94C401.916 329.529 401.97 330.458 401.97 330.458C401.97 330.458 412.198 330.458 412.837 327.897C413.477 325.335 415.395 297.16 412.837 288.195C410.28 279.23 416.481 212.946 416.481 212.946L390.134 209.176Z" fill="#2F2E41"/>
<path d="M404.527 327.256C404.527 327.256 398.134 329.177 396.855 331.739C395.577 334.3 374.481 338.783 380.873 341.985C387.266 345.186 406.445 339.423 406.445 339.423C406.445 339.423 416.673 338.783 416.034 334.941C415.394 331.098 413.066 326.364 413.066 326.364L404.527 327.256Z" fill="#2F2E41"/>
<path d="M422.427 329.303C422.427 329.303 416.034 331.225 414.755 333.786C413.477 336.347 392.381 340.83 398.773 344.032C405.166 347.233 424.344 341.47 424.344 341.47C424.344 341.47 434.573 340.83 433.934 336.988C433.294 333.146 430.966 328.411 430.966 328.411L422.427 329.303Z" fill="#2F2E41"/>
<path d="M395.577 212.759L404.527 228.127L419.463 281.561C419.463 281.561 417.951 330.584 419.869 330.584C421.787 330.584 432.016 333.786 432.655 330.584C433.195 327.88 440.355 301.972 436.786 284.727C434.464 273.828 432.971 262.769 432.319 251.644L430.737 221.724C430.737 221.724 437.13 210.198 430.098 208.277C423.066 206.355 395.577 212.759 395.577 212.759Z" fill="#2F2E41"/>
<path d="M403.888 114.144C412.361 114.144 419.23 107.264 419.23 98.7759C419.23 90.2881 412.361 83.4074 403.888 83.4074C395.414 83.4074 388.545 90.2881 388.545 98.7759C388.545 107.264 395.414 114.144 403.888 114.144Z" fill="#FFB8B8"/>
<path d="M401.97 109.022C401.97 109.022 404.527 129.513 403.888 130.794C403.248 132.074 419.23 116.706 419.23 116.706C419.23 116.706 413.477 107.741 414.755 103.258L401.97 109.022Z" fill="#FFB8B8"/>
<path d="M437.769 129.513C437.769 129.513 419.87 116.706 419.23 114.144L405.805 125.671L403.524 122.951C403.524 122.951 393.02 133.355 393.02 137.837C393.02 142.32 392.381 155.767 394.298 159.61C396.216 163.452 388.545 212.119 388.545 212.119C388.545 212.119 394.938 217.882 395.577 218.522C396.216 219.162 421.787 214.68 421.787 214.68C421.787 214.68 434.573 213.399 434.573 211.478C434.573 209.557 430.737 180.741 432.016 173.057C433.294 165.373 437.769 129.513 437.769 129.513Z" fill="#575A89"/>
<path d="M397.334 91.0986C399.431 90.3509 401.745 89.9669 403.883 90.5868C406.91 91.464 409.006 94.1214 411.267 96.3194C413.527 98.5175 416.698 100.465 419.675 99.4316C419.495 98.1391 419.834 96.8281 420.616 95.7849C421.005 95.396 421.292 94.9172 421.452 94.3909C421.579 93.5678 420.889 92.8579 420.681 92.0512C420.318 90.6376 421.314 88.7025 420.09 87.9102C419.767 87.7011 419.358 87.6534 419.042 87.4327C417.805 86.5664 419.179 84.4119 418.361 83.1411C418.116 82.8129 417.798 82.5468 417.431 82.3643C411.499 78.8971 404.245 78.8876 397.377 78.9749C396.421 78.9871 395.09 79.4627 395.36 80.3816C394.062 79.4484 392.363 80.7587 391.316 81.9682L389.175 84.4438C388.169 85.5204 387.291 86.7102 386.558 87.9894C385.904 89.2423 385.76 91.1686 387.062 91.7149C386.094 91.3088 384.92 97.051 389.381 96.1062C391.974 95.5573 394.515 92.1038 397.334 91.0986Z" fill="#2F2E41"/>
<path d="M383.139 35.438H30.5596V211.381H383.139V35.438Z" fill="white"/>
<path d="M128.907 61.2942H51.8457V128.713H128.907V61.2942Z" fill="#E6E6E6"/>
<path d="M245.499 61.4969H168.67V128.713H245.499V61.4969Z" fill="#E6E6E6"/>
<path d="M361.853 60.8376H284.27V128.713H361.853V60.8376Z" fill="#E6E6E6"/>
<path d="M127.216 158.14H51.8457V165.115H127.216V158.14Z" fill="#E6E6E6"/>
<path d="M89.6083 170.419H51.8457V177.393H89.6083V170.419Z" fill="#5F2EEA"/>
<path d="M245.296 158.14H169.926V165.115H245.296V158.14Z" fill="#E6E6E6"/>
<path d="M207.688 170.419H169.926V177.393H207.688V170.419Z" fill="#5F2EEA"/>
<path d="M360.425 158.14H285.054V165.115H360.425V158.14Z" fill="#E6E6E6"/>
<path d="M322.817 170.419H285.054V177.393H322.817V170.419Z" fill="#5F2EEA"/>
<path d="M193.344 146.967C195.309 146.967 196.902 145.372 196.902 143.403C196.902 141.435 195.309 139.839 193.344 139.839C191.379 139.839 189.786 141.435 189.786 143.403C189.786 145.372 191.379 146.967 193.344 146.967Z" fill="#5F2EEA"/>
<path d="M206.849 146.967C208.814 146.967 210.407 145.372 210.407 143.403C210.407 141.435 208.814 139.839 206.849 139.839C204.884 139.839 203.291 141.435 203.291 143.403C203.291 145.372 204.884 146.967 206.849 146.967Z" fill="#E6E6E6"/>
<path d="M220.355 146.967C222.32 146.967 223.913 145.372 223.913 143.403C223.913 141.435 222.32 139.839 220.355 139.839C218.39 139.839 216.797 141.435 216.797 143.403C216.797 145.372 218.39 146.967 220.355 146.967Z" fill="#E6E6E6"/>
<path d="M76.8706 146.967C78.8357 146.967 80.4287 145.372 80.4287 143.403C80.4287 141.435 78.8357 139.839 76.8706 139.839C74.9055 139.839 73.3125 141.435 73.3125 143.403C73.3125 145.372 74.9055 146.967 76.8706 146.967Z" fill="#5F2EEA"/>
<path d="M90.376 146.967C92.341 146.967 93.934 145.372 93.934 143.403C93.934 141.435 92.341 139.839 90.376 139.839C88.4109 139.839 86.8179 141.435 86.8179 143.403C86.8179 145.372 88.4109 146.967 90.376 146.967Z" fill="#5F2EEA"/>
<path d="M103.882 146.967C105.847 146.967 107.44 145.372 107.44 143.403C107.44 141.435 105.847 139.839 103.882 139.839C101.917 139.839 100.324 141.435 100.324 143.403C100.324 145.372 101.917 146.967 103.882 146.967Z" fill="#E6E6E6"/>
<path d="M312.689 146.967C314.654 146.967 316.247 145.372 316.247 143.403C316.247 141.435 314.654 139.839 312.689 139.839C310.724 139.839 309.131 141.435 309.131 143.403C309.131 145.372 310.724 146.967 312.689 146.967Z" fill="#5F2EEA"/>
<path d="M326.194 146.967C328.159 146.967 329.752 145.372 329.752 143.403C329.752 141.435 328.159 139.839 326.194 139.839C324.229 139.839 322.636 141.435 322.636 143.403C322.636 145.372 324.229 146.967 326.194 146.967Z" fill="#5F2EEA"/>
<path d="M339.7 146.967C341.665 146.967 343.258 145.372 343.258 143.403C343.258 141.435 341.665 139.839 339.7 139.839C337.735 139.839 336.142 141.435 336.142 143.403C336.142 145.372 337.735 146.967 339.7 146.967Z" fill="#5F2EEA"/>
<path d="M323.061 75.0164C319.16 75.0164 315.346 76.1752 312.103 78.3464C308.859 80.5175 306.33 83.6034 304.837 87.2138C303.344 90.8242 302.954 94.797 303.715 98.6298C304.476 102.463 306.355 105.983 309.113 108.747C311.872 111.51 315.387 113.392 319.213 114.154C323.04 114.917 327.006 114.525 330.61 113.03C334.214 111.534 337.295 109.002 339.463 105.752C341.63 102.503 342.787 98.683 342.787 94.7751C342.772 89.5395 340.689 84.5227 336.993 80.8205C333.297 77.1184 328.288 75.0317 323.061 75.0164ZM323.061 80.944C324.232 80.944 325.376 81.2917 326.349 81.943C327.322 82.5943 328.081 83.5201 328.529 84.6032C328.977 85.6864 329.094 86.8782 328.865 88.028C328.637 89.1779 328.073 90.2341 327.246 91.0631C326.418 91.8921 325.364 92.4566 324.216 92.6853C323.068 92.9141 321.878 92.7967 320.797 92.348C319.716 91.8994 318.791 91.1396 318.141 90.1648C317.491 89.19 317.144 88.044 317.144 86.8716C317.149 85.3011 317.774 83.7965 318.883 82.686C319.991 81.5755 321.494 80.9493 323.061 80.944ZM323.061 109.48C320.724 109.469 318.424 108.888 316.362 107.785C314.299 106.683 312.536 105.093 311.226 103.154C311.321 99.2018 319.116 97.0264 323.061 97.0264C327.007 97.0264 334.802 99.2018 334.897 103.154C333.585 105.091 331.822 106.68 329.76 107.782C327.698 108.885 325.399 109.467 323.061 109.48Z" fill="#5F2EEA"/>
<path d="M207.084 75.3461C203.183 75.3461 199.369 76.5049 196.126 78.676C192.882 80.8471 190.353 83.933 188.86 87.5434C187.367 91.1539 186.977 95.1267 187.738 98.9595C188.499 102.792 190.378 106.313 193.136 109.076C195.895 111.84 199.41 113.721 203.236 114.484C207.062 115.246 211.029 114.855 214.633 113.359C218.237 111.864 221.318 109.331 223.486 106.082C225.653 102.833 226.81 99.0127 226.81 95.1048C226.795 89.8692 224.711 84.8524 221.015 81.1502C217.32 77.4481 212.311 75.3614 207.084 75.3461ZM207.084 81.2737C208.255 81.2737 209.399 81.6213 210.372 82.2727C211.345 82.924 212.104 83.8498 212.552 84.9329C212.999 86.016 213.117 87.2079 212.888 88.3577C212.66 89.5076 212.096 90.5638 211.269 91.3928C210.441 92.2218 209.387 92.7863 208.239 93.015C207.091 93.2437 205.901 93.1264 204.82 92.6777C203.739 92.2291 202.814 91.4693 202.164 90.4945C201.514 89.5197 201.167 88.3737 201.167 87.2013C201.172 85.6308 201.797 84.1262 202.906 83.0157C204.014 81.9051 205.517 81.2789 207.084 81.2737ZM207.084 109.81C204.747 109.799 202.447 109.217 200.385 108.115C198.322 107.012 196.559 105.423 195.249 103.483C195.344 99.5315 203.139 97.3561 207.084 97.3561C211.029 97.3561 218.825 99.5315 218.92 103.483C217.608 105.421 215.845 107.01 213.783 108.112C211.721 109.214 209.422 109.797 207.084 109.81Z" fill="#5F2EEA"/>
<path d="M90.3764 75.2447C86.475 75.2447 82.6613 76.4035 79.4175 78.5746C76.1736 80.7458 73.6454 83.8316 72.1524 87.4421C70.6594 91.0525 70.2688 95.0253 71.0299 98.8581C71.791 102.691 73.6697 106.212 76.4283 108.975C79.187 111.738 82.7017 113.62 86.5281 114.382C90.3545 115.145 94.3206 114.754 97.925 113.258C101.529 111.763 104.61 109.23 106.778 105.981C108.945 102.731 110.102 98.9113 110.102 95.0034C110.087 89.7678 108.003 84.751 104.307 81.0488C100.612 77.3467 95.6032 75.26 90.3764 75.2447ZM90.3764 81.1723C91.5468 81.1723 92.6909 81.52 93.6641 82.1713C94.6372 82.8226 95.3957 83.7484 95.8436 84.8315C96.2915 85.9147 96.4087 87.1065 96.1803 88.2563C95.952 89.4062 95.3884 90.4624 94.5608 91.2914C93.7332 92.1204 92.6788 92.6849 91.5309 92.9136C90.383 93.1424 89.1931 93.025 88.1118 92.5763C87.0305 92.1277 86.1063 91.3679 85.456 90.3931C84.8058 89.4183 84.4587 88.2723 84.4587 87.0999C84.464 85.5294 85.0891 84.0248 86.1978 82.9143C87.3064 81.8038 88.8085 81.1776 90.3764 81.1723V81.1723ZM90.3764 109.708C88.0387 109.698 85.7389 109.116 83.6765 108.013C81.614 106.911 79.8513 105.321 78.5411 103.382C78.6359 99.4301 86.4313 97.2547 90.3764 97.2547C94.3215 97.2547 102.117 99.4301 102.212 103.382C100.9 105.32 99.1369 106.908 97.0748 108.011C95.0127 109.113 92.7137 109.696 90.3764 109.708Z" fill="#5F2EEA"/>
<path d="M441.605 147.443C441.605 147.443 444.801 189.066 440.326 190.347C435.851 191.627 419.869 201.233 394.298 198.671C394.298 198.671 369.366 212.119 373.202 199.312C377.038 186.504 394.298 189.706 394.298 189.706C394.298 189.706 424.984 183.303 426.262 178.82C427.541 174.338 422.426 155.767 424.344 155.127C426.262 154.487 441.605 147.443 441.605 147.443Z" fill="#FFB8B8"/>
<path d="M427.541 130.794L437.769 129.513C437.769 129.513 447.998 149.364 442.244 152.566C436.491 155.767 421.787 158.329 421.787 157.048C421.787 155.767 427.541 130.794 427.541 130.794Z" fill="#575A89"/>
<path d="M195 387H459C476.673 387 491 401.327 491 419V443C491 460.673 476.673 475 459 475H227C209.327 475 195 460.673 195 443V387Z" fill="#EFF0F7"/>
<path d="M221.864 415.864H219.496L221.224 411.832H222.776L221.864 415.864ZM225.096 415.864H222.728L224.456 411.832H226.008L225.096 415.864ZM234.815 417.272C235.444 417.389 235.962 417.704 236.367 418.216C236.772 418.728 236.975 419.315 236.975 419.976C236.975 420.573 236.826 421.101 236.527 421.56C236.239 422.008 235.818 422.36 235.263 422.616C234.708 422.872 234.052 423 233.295 423H228.479V411.832H233.087C233.844 411.832 234.495 411.955 235.039 412.2C235.594 412.445 236.01 412.787 236.287 413.224C236.575 413.661 236.719 414.157 236.719 414.712C236.719 415.363 236.543 415.907 236.191 416.344C235.85 416.781 235.391 417.091 234.815 417.272ZM230.719 416.44H232.767C233.3 416.44 233.711 416.323 233.999 416.088C234.287 415.843 234.431 415.496 234.431 415.048C234.431 414.6 234.287 414.253 233.999 414.008C233.711 413.763 233.3 413.64 232.767 413.64H230.719V416.44ZM232.975 421.176C233.519 421.176 233.94 421.048 234.239 420.792C234.548 420.536 234.703 420.173 234.703 419.704C234.703 419.224 234.543 418.851 234.223 418.584C233.903 418.307 233.471 418.168 232.927 418.168H230.719V421.176H232.975ZM247.878 414.136V423H245.622V421.88C245.334 422.264 244.956 422.568 244.486 422.792C244.028 423.005 243.526 423.112 242.982 423.112C242.289 423.112 241.676 422.968 241.142 422.68C240.609 422.381 240.188 421.949 239.878 421.384C239.58 420.808 239.43 420.125 239.43 419.336V414.136H241.67V419.016C241.67 419.72 241.846 420.264 242.198 420.648C242.55 421.021 243.03 421.208 243.638 421.208C244.257 421.208 244.742 421.021 245.094 420.648C245.446 420.264 245.622 419.72 245.622 419.016V414.136H247.878ZM254.23 423.144C253.505 423.144 252.854 423.016 252.278 422.76C251.702 422.493 251.244 422.136 250.902 421.688C250.572 421.24 250.39 420.744 250.358 420.2H252.614C252.657 420.541 252.822 420.824 253.11 421.048C253.409 421.272 253.777 421.384 254.214 421.384C254.641 421.384 254.972 421.299 255.206 421.128C255.452 420.957 255.574 420.739 255.574 420.472C255.574 420.184 255.425 419.971 255.126 419.832C254.838 419.683 254.374 419.523 253.734 419.352C253.073 419.192 252.529 419.027 252.102 418.856C251.686 418.685 251.324 418.424 251.014 418.072C250.716 417.72 250.566 417.245 250.566 416.648C250.566 416.157 250.705 415.709 250.982 415.304C251.27 414.899 251.676 414.579 252.198 414.344C252.732 414.109 253.356 413.992 254.07 413.992C255.126 413.992 255.969 414.259 256.598 414.792C257.228 415.315 257.574 416.024 257.638 416.92H255.494C255.462 416.568 255.313 416.291 255.046 416.088C254.79 415.875 254.444 415.768 254.006 415.768C253.601 415.768 253.286 415.843 253.062 415.992C252.849 416.141 252.742 416.349 252.742 416.616C252.742 416.915 252.892 417.144 253.19 417.304C253.489 417.453 253.953 417.608 254.582 417.768C255.222 417.928 255.75 418.093 256.166 418.264C256.582 418.435 256.94 418.701 257.238 419.064C257.548 419.416 257.708 419.885 257.718 420.472C257.718 420.984 257.574 421.443 257.286 421.848C257.009 422.253 256.604 422.573 256.07 422.808C255.548 423.032 254.934 423.144 254.23 423.144ZM259.731 418.568C259.731 417.651 259.918 416.851 260.291 416.168C260.664 415.475 261.182 414.941 261.843 414.568C262.504 414.184 263.262 413.992 264.115 413.992C265.214 413.992 266.12 414.269 266.835 414.824C267.56 415.368 268.046 416.136 268.291 417.128H265.875C265.747 416.744 265.528 416.445 265.219 416.232C264.92 416.008 264.547 415.896 264.099 415.896C263.459 415.896 262.952 416.131 262.579 416.6C262.206 417.059 262.019 417.715 262.019 418.568C262.019 419.411 262.206 420.067 262.579 420.536C262.952 420.995 263.459 421.224 264.099 421.224C265.006 421.224 265.598 420.819 265.875 420.008H268.291C268.046 420.968 267.56 421.731 266.835 422.296C266.11 422.861 265.203 423.144 264.115 423.144C263.262 423.144 262.504 422.957 261.843 422.584C261.182 422.2 260.664 421.667 260.291 420.984C259.918 420.291 259.731 419.485 259.731 418.568ZM270.106 418.536C270.106 417.64 270.282 416.845 270.634 416.152C270.997 415.459 271.482 414.925 272.09 414.552C272.709 414.179 273.397 413.992 274.154 413.992C274.815 413.992 275.391 414.125 275.882 414.392C276.383 414.659 276.783 414.995 277.082 415.4V414.136H279.338V423H277.082V421.704C276.794 422.12 276.394 422.467 275.882 422.744C275.381 423.011 274.799 423.144 274.138 423.144C273.391 423.144 272.709 422.952 272.09 422.568C271.482 422.184 270.997 421.645 270.634 420.952C270.282 420.248 270.106 419.443 270.106 418.536ZM277.082 418.568C277.082 418.024 276.975 417.56 276.762 417.176C276.549 416.781 276.261 416.483 275.898 416.28C275.535 416.067 275.146 415.96 274.73 415.96C274.314 415.96 273.93 416.061 273.578 416.264C273.226 416.467 272.938 416.765 272.714 417.16C272.501 417.544 272.394 418.003 272.394 418.536C272.394 419.069 272.501 419.539 272.714 419.944C272.938 420.339 273.226 420.643 273.578 420.856C273.941 421.069 274.325 421.176 274.73 421.176C275.146 421.176 275.535 421.075 275.898 420.872C276.261 420.659 276.549 420.36 276.762 419.976C276.975 419.581 277.082 419.112 277.082 418.568ZM284.516 415.512C284.804 415.043 285.177 414.675 285.636 414.408C286.105 414.141 286.639 414.008 287.236 414.008V416.36H286.644C285.94 416.36 285.407 416.525 285.044 416.856C284.692 417.187 284.516 417.763 284.516 418.584V423H282.276V414.136H284.516V415.512ZM295.193 413.08C294.798 413.08 294.468 412.957 294.201 412.712C293.945 412.456 293.817 412.141 293.817 411.768C293.817 411.395 293.945 411.085 294.201 410.84C294.468 410.584 294.798 410.456 295.193 410.456C295.588 410.456 295.913 410.584 296.169 410.84C296.436 411.085 296.569 411.395 296.569 411.768C296.569 412.141 296.436 412.456 296.169 412.712C295.913 412.957 295.588 413.08 295.193 413.08ZM296.297 414.136V423H294.057V414.136H296.297ZM304.172 414.008C305.228 414.008 306.082 414.344 306.732 415.016C307.383 415.677 307.708 416.605 307.708 417.8V423H305.468V418.104C305.468 417.4 305.292 416.861 304.94 416.488C304.588 416.104 304.108 415.912 303.5 415.912C302.882 415.912 302.391 416.104 302.028 416.488C301.676 416.861 301.5 417.4 301.5 418.104V423H299.26V414.136H301.5V415.24C301.799 414.856 302.178 414.557 302.636 414.344C303.106 414.12 303.618 414.008 304.172 414.008ZM313.98 423.144C313.255 423.144 312.604 423.016 312.028 422.76C311.452 422.493 310.994 422.136 310.652 421.688C310.322 421.24 310.14 420.744 310.108 420.2H312.364C312.407 420.541 312.572 420.824 312.86 421.048C313.159 421.272 313.527 421.384 313.964 421.384C314.391 421.384 314.722 421.299 314.956 421.128C315.202 420.957 315.324 420.739 315.324 420.472C315.324 420.184 315.175 419.971 314.876 419.832C314.588 419.683 314.124 419.523 313.484 419.352C312.823 419.192 312.279 419.027 311.852 418.856C311.436 418.685 311.074 418.424 310.764 418.072C310.466 417.72 310.316 417.245 310.316 416.648C310.316 416.157 310.455 415.709 310.732 415.304C311.02 414.899 311.426 414.579 311.948 414.344C312.482 414.109 313.106 413.992 313.82 413.992C314.876 413.992 315.719 414.259 316.348 414.792C316.978 415.315 317.324 416.024 317.388 416.92H315.244C315.212 416.568 315.063 416.291 314.796 416.088C314.54 415.875 314.194 415.768 313.756 415.768C313.351 415.768 313.036 415.843 312.812 415.992C312.599 416.141 312.492 416.349 312.492 416.616C312.492 416.915 312.642 417.144 312.94 417.304C313.239 417.453 313.703 417.608 314.332 417.768C314.972 417.928 315.5 418.093 315.916 418.264C316.332 418.435 316.69 418.701 316.988 419.064C317.298 419.416 317.458 419.885 317.468 420.472C317.468 420.984 317.324 421.443 317.036 421.848C316.759 422.253 316.354 422.573 315.82 422.808C315.298 423.032 314.684 423.144 313.98 423.144ZM328.425 414.136V423H326.169V421.88C325.881 422.264 325.502 422.568 325.033 422.792C324.574 423.005 324.073 423.112 323.529 423.112C322.836 423.112 322.222 422.968 321.689 422.68C321.156 422.381 320.734 421.949 320.425 421.384C320.126 420.808 319.977 420.125 319.977 419.336V414.136H322.217V419.016C322.217 419.72 322.393 420.264 322.745 420.648C323.097 421.021 323.577 421.208 324.185 421.208C324.804 421.208 325.289 421.021 325.641 420.648C325.993 420.264 326.169 419.72 326.169 419.016V414.136H328.425ZM342.393 414.008C343.481 414.008 344.356 414.344 345.017 415.016C345.689 415.677 346.025 416.605 346.025 417.8V423H343.785V418.104C343.785 417.411 343.609 416.883 343.257 416.52C342.905 416.147 342.425 415.96 341.817 415.96C341.209 415.96 340.724 416.147 340.361 416.52C340.009 416.883 339.833 417.411 339.833 418.104V423H337.593V418.104C337.593 417.411 337.417 416.883 337.065 416.52C336.713 416.147 336.233 415.96 335.625 415.96C335.007 415.96 334.516 416.147 334.153 416.52C333.801 416.883 333.625 417.411 333.625 418.104V423H331.385V414.136H333.625V415.208C333.913 414.835 334.281 414.541 334.729 414.328C335.188 414.115 335.689 414.008 336.233 414.008C336.927 414.008 337.545 414.157 338.089 414.456C338.633 414.744 339.055 415.16 339.353 415.704C339.641 415.192 340.057 414.781 340.601 414.472C341.156 414.163 341.753 414.008 342.393 414.008ZM352.837 423.144C351.984 423.144 351.216 422.957 350.533 422.584C349.85 422.2 349.312 421.661 348.917 420.968C348.533 420.275 348.341 419.475 348.341 418.568C348.341 417.661 348.538 416.861 348.933 416.168C349.338 415.475 349.888 414.941 350.581 414.568C351.274 414.184 352.048 413.992 352.901 413.992C353.754 413.992 354.528 414.184 355.221 414.568C355.914 414.941 356.458 415.475 356.853 416.168C357.258 416.861 357.461 417.661 357.461 418.568C357.461 419.475 357.253 420.275 356.837 420.968C356.432 421.661 355.877 422.2 355.173 422.584C354.48 422.957 353.701 423.144 352.837 423.144ZM352.837 421.192C353.242 421.192 353.621 421.096 353.973 420.904C354.336 420.701 354.624 420.403 354.837 420.008C355.05 419.613 355.157 419.133 355.157 418.568C355.157 417.725 354.933 417.08 354.485 416.632C354.048 416.173 353.509 415.944 352.869 415.944C352.229 415.944 351.69 416.173 351.253 416.632C350.826 417.08 350.613 417.725 350.613 418.568C350.613 419.411 350.821 420.061 351.237 420.52C351.664 420.968 352.197 421.192 352.837 421.192ZM363.246 423.144C362.521 423.144 361.87 423.016 361.294 422.76C360.718 422.493 360.259 422.136 359.918 421.688C359.587 421.24 359.406 420.744 359.374 420.2H361.63C361.673 420.541 361.838 420.824 362.126 421.048C362.425 421.272 362.793 421.384 363.23 421.384C363.657 421.384 363.987 421.299 364.222 421.128C364.467 420.957 364.59 420.739 364.59 420.472C364.59 420.184 364.441 419.971 364.142 419.832C363.854 419.683 363.39 419.523 362.75 419.352C362.089 419.192 361.545 419.027 361.118 418.856C360.702 418.685 360.339 418.424 360.03 418.072C359.731 417.72 359.582 417.245 359.582 416.648C359.582 416.157 359.721 415.709 359.998 415.304C360.286 414.899 360.691 414.579 361.214 414.344C361.747 414.109 362.371 413.992 363.086 413.992C364.142 413.992 364.985 414.259 365.614 414.792C366.243 415.315 366.59 416.024 366.654 416.92H364.51C364.478 416.568 364.329 416.291 364.062 416.088C363.806 415.875 363.459 415.768 363.022 415.768C362.617 415.768 362.302 415.843 362.078 415.992C361.865 416.141 361.758 416.349 361.758 416.616C361.758 416.915 361.907 417.144 362.206 417.304C362.505 417.453 362.969 417.608 363.598 417.768C364.238 417.928 364.766 418.093 365.182 418.264C365.598 418.435 365.955 418.701 366.254 419.064C366.563 419.416 366.723 419.885 366.734 420.472C366.734 420.984 366.59 421.443 366.302 421.848C366.025 422.253 365.619 422.573 365.086 422.808C364.563 423.032 363.95 423.144 363.246 423.144ZM373.309 418.536C373.309 417.64 373.485 416.845 373.837 416.152C374.2 415.459 374.685 414.925 375.293 414.552C375.912 414.179 376.6 413.992 377.357 413.992C378.019 413.992 378.595 414.125 379.085 414.392C379.587 414.659 379.987 414.995 380.285 415.4V414.136H382.541V423H380.285V421.704C379.997 422.12 379.597 422.467 379.085 422.744C378.584 423.011 378.003 423.144 377.341 423.144C376.595 423.144 375.912 422.952 375.293 422.568C374.685 422.184 374.2 421.645 373.837 420.952C373.485 420.248 373.309 419.443 373.309 418.536ZM380.285 418.568C380.285 418.024 380.179 417.56 379.965 417.176C379.752 416.781 379.464 416.483 379.101 416.28C378.739 416.067 378.349 415.96 377.933 415.96C377.517 415.96 377.133 416.061 376.781 416.264C376.429 416.467 376.141 416.765 375.917 417.16C375.704 417.544 375.597 418.003 375.597 418.536C375.597 419.069 375.704 419.539 375.917 419.944C376.141 420.339 376.429 420.643 376.781 420.856C377.144 421.069 377.528 421.176 377.933 421.176C378.349 421.176 378.739 421.075 379.101 420.872C379.464 420.659 379.752 420.36 379.965 419.976C380.179 419.581 380.285 419.112 380.285 418.568ZM387.719 411.16V423H385.479V411.16H387.719ZM394.618 423.144C393.765 423.144 392.997 422.957 392.314 422.584C391.631 422.2 391.093 421.661 390.698 420.968C390.314 420.275 390.122 419.475 390.122 418.568C390.122 417.661 390.319 416.861 390.714 416.168C391.119 415.475 391.669 414.941 392.362 414.568C393.055 414.184 393.829 413.992 394.682 413.992C395.535 413.992 396.309 414.184 397.002 414.568C397.695 414.941 398.239 415.475 398.634 416.168C399.039 416.861 399.242 417.661 399.242 418.568C399.242 419.475 399.034 420.275 398.618 420.968C398.213 421.661 397.658 422.2 396.954 422.584C396.261 422.957 395.482 423.144 394.618 423.144ZM394.618 421.192C395.023 421.192 395.402 421.096 395.754 420.904C396.117 420.701 396.405 420.403 396.618 420.008C396.831 419.613 396.938 419.133 396.938 418.568C396.938 417.725 396.714 417.08 396.266 416.632C395.829 416.173 395.29 415.944 394.65 415.944C394.01 415.944 393.471 416.173 393.034 416.632C392.607 417.08 392.394 417.725 392.394 418.568C392.394 419.411 392.602 420.061 393.018 420.52C393.445 420.968 393.978 421.192 394.618 421.192ZM401.059 418.568C401.059 417.651 401.246 416.851 401.619 416.168C401.993 415.475 402.51 414.941 403.171 414.568C403.833 414.184 404.59 413.992 405.443 413.992C406.542 413.992 407.449 414.269 408.163 414.824C408.889 415.368 409.374 416.136 409.619 417.128H407.203C407.075 416.744 406.857 416.445 406.547 416.232C406.249 416.008 405.875 415.896 405.427 415.896C404.787 415.896 404.281 416.131 403.907 416.6C403.534 417.059 403.347 417.715 403.347 418.568C403.347 419.411 403.534 420.067 403.907 420.536C404.281 420.995 404.787 421.224 405.427 421.224C406.334 421.224 406.926 420.819 407.203 420.008H409.619C409.374 420.968 408.889 421.731 408.163 422.296C407.438 422.861 406.531 423.144 405.443 423.144C404.59 423.144 403.833 422.957 403.171 422.584C402.51 422.2 401.993 421.667 401.619 420.984C401.246 420.291 401.059 419.485 401.059 418.568ZM411.434 418.536C411.434 417.64 411.61 416.845 411.962 416.152C412.325 415.459 412.81 414.925 413.418 414.552C414.037 414.179 414.725 413.992 415.482 413.992C416.144 413.992 416.72 414.125 417.21 414.392C417.712 414.659 418.112 414.995 418.41 415.4V414.136H420.666V423H418.41V421.704C418.122 422.12 417.722 422.467 417.21 422.744C416.709 423.011 416.128 423.144 415.466 423.144C414.72 423.144 414.037 422.952 413.418 422.568C412.81 422.184 412.325 421.645 411.962 420.952C411.61 420.248 411.434 419.443 411.434 418.536ZM418.41 418.568C418.41 418.024 418.304 417.56 418.09 417.176C417.877 416.781 417.589 416.483 417.226 416.28C416.864 416.067 416.474 415.96 416.058 415.96C415.642 415.96 415.258 416.061 414.906 416.264C414.554 416.467 414.266 416.765 414.042 417.16C413.829 417.544 413.722 418.003 413.722 418.536C413.722 419.069 413.829 419.539 414.042 419.944C414.266 420.339 414.554 420.643 414.906 420.856C415.269 421.069 415.653 421.176 416.058 421.176C416.474 421.176 416.864 421.075 417.226 420.872C417.589 420.659 417.877 420.36 418.09 419.976C418.304 419.581 418.41 419.112 418.41 418.568ZM423.028 418.536C423.028 417.64 423.204 416.845 423.556 416.152C423.919 415.459 424.409 414.925 425.028 414.552C425.647 414.179 426.335 413.992 427.092 413.992C427.668 413.992 428.217 414.12 428.74 414.376C429.263 414.621 429.679 414.952 429.988 415.368V411.16H432.26V423H429.988V421.688C429.711 422.125 429.321 422.477 428.82 422.744C428.319 423.011 427.737 423.144 427.076 423.144C426.329 423.144 425.647 422.952 425.028 422.568C424.409 422.184 423.919 421.645 423.556 420.952C423.204 420.248 423.028 419.443 423.028 418.536ZM430.004 418.568C430.004 418.024 429.897 417.56 429.684 417.176C429.471 416.781 429.183 416.483 428.82 416.28C428.457 416.067 428.068 415.96 427.652 415.96C427.236 415.96 426.852 416.061 426.5 416.264C426.148 416.467 425.86 416.765 425.636 417.16C425.423 417.544 425.316 418.003 425.316 418.536C425.316 419.069 425.423 419.539 425.636 419.944C425.86 420.339 426.148 420.643 426.5 420.856C426.863 421.069 427.247 421.176 427.652 421.176C428.068 421.176 428.457 421.075 428.82 420.872C429.183 420.659 429.471 420.36 429.684 419.976C429.897 419.581 430.004 419.112 430.004 418.568ZM439.134 423.144C438.28 423.144 437.512 422.957 436.83 422.584C436.147 422.2 435.608 421.661 435.214 420.968C434.83 420.275 434.638 419.475 434.638 418.568C434.638 417.661 434.835 416.861 435.23 416.168C435.635 415.475 436.184 414.941 436.878 414.568C437.571 414.184 438.344 413.992 439.198 413.992C440.051 413.992 440.824 414.184 441.518 414.568C442.211 414.941 442.755 415.475 443.15 416.168C443.555 416.861 443.758 417.661 443.758 418.568C443.758 419.475 443.55 420.275 443.134 420.968C442.728 421.661 442.174 422.2 441.47 422.584C440.776 422.957 439.998 423.144 439.134 423.144ZM439.134 421.192C439.539 421.192 439.918 421.096 440.27 420.904C440.632 420.701 440.92 420.403 441.134 420.008C441.347 419.613 441.454 419.133 441.454 418.568C441.454 417.725 441.23 417.08 440.782 416.632C440.344 416.173 439.806 415.944 439.166 415.944C438.526 415.944 437.987 416.173 437.55 416.632C437.123 417.08 436.91 417.725 436.91 418.568C436.91 419.411 437.118 420.061 437.534 420.52C437.96 420.968 438.494 421.192 439.134 421.192ZM449.543 423.144C448.818 423.144 448.167 423.016 447.591 422.76C447.015 422.493 446.556 422.136 446.215 421.688C445.884 421.24 445.703 420.744 445.671 420.2H447.927C447.97 420.541 448.135 420.824 448.423 421.048C448.722 421.272 449.09 421.384 449.527 421.384C449.954 421.384 450.284 421.299 450.519 421.128C450.764 420.957 450.887 420.739 450.887 420.472C450.887 420.184 450.738 419.971 450.439 419.832C450.151 419.683 449.687 419.523 449.047 419.352C448.386 419.192 447.842 419.027 447.415 418.856C446.999 418.685 446.636 418.424 446.327 418.072C446.028 417.72 445.879 417.245 445.879 416.648C445.879 416.157 446.018 415.709 446.295 415.304C446.583 414.899 446.988 414.579 447.511 414.344C448.044 414.109 448.668 413.992 449.383 413.992C450.439 413.992 451.282 414.259 451.911 414.792C452.54 415.315 452.887 416.024 452.951 416.92H450.807C450.775 416.568 450.626 416.291 450.359 416.088C450.103 415.875 449.756 415.768 449.319 415.768C448.914 415.768 448.599 415.843 448.375 415.992C448.162 416.141 448.055 416.349 448.055 416.616C448.055 416.915 448.204 417.144 448.503 417.304C448.802 417.453 449.266 417.608 449.895 417.768C450.535 417.928 451.063 418.093 451.479 418.264C451.895 418.435 452.252 418.701 452.551 419.064C452.86 419.416 453.02 419.885 453.031 420.472C453.031 420.984 452.887 421.443 452.599 421.848C452.322 422.253 451.916 422.573 451.383 422.808C450.86 423.032 450.247 423.144 449.543 423.144ZM219.528 446.536C219.528 445.64 219.704 444.845 220.056 444.152C220.419 443.459 220.909 442.925 221.528 442.552C222.147 442.179 222.835 441.992 223.592 441.992C224.168 441.992 224.717 442.12 225.24 442.376C225.763 442.621 226.179 442.952 226.488 443.368V439.16H228.76V451H226.488V449.688C226.211 450.125 225.821 450.477 225.32 450.744C224.819 451.011 224.237 451.144 223.576 451.144C222.829 451.144 222.147 450.952 221.528 450.568C220.909 450.184 220.419 449.645 220.056 448.952C219.704 448.248 219.528 447.443 219.528 446.536ZM226.504 446.568C226.504 446.024 226.397 445.56 226.184 445.176C225.971 444.781 225.683 444.483 225.32 444.28C224.957 444.067 224.568 443.96 224.152 443.96C223.736 443.96 223.352 444.061 223 444.264C222.648 444.467 222.36 444.765 222.136 445.16C221.923 445.544 221.816 446.003 221.816 446.536C221.816 447.069 221.923 447.539 222.136 447.944C222.36 448.339 222.648 448.643 223 448.856C223.363 449.069 223.747 449.176 224.152 449.176C224.568 449.176 224.957 449.075 225.32 448.872C225.683 448.659 225.971 448.36 226.184 447.976C226.397 447.581 226.504 447.112 226.504 446.568ZM235.634 451.144C234.78 451.144 234.012 450.957 233.33 450.584C232.647 450.2 232.108 449.661 231.714 448.968C231.33 448.275 231.138 447.475 231.138 446.568C231.138 445.661 231.335 444.861 231.73 444.168C232.135 443.475 232.684 442.941 233.378 442.568C234.071 442.184 234.844 441.992 235.698 441.992C236.551 441.992 237.324 442.184 238.018 442.568C238.711 442.941 239.255 443.475 239.65 444.168C240.055 444.861 240.258 445.661 240.258 446.568C240.258 447.475 240.05 448.275 239.634 448.968C239.228 449.661 238.674 450.2 237.97 450.584C237.276 450.957 236.498 451.144 235.634 451.144ZM235.634 449.192C236.039 449.192 236.418 449.096 236.77 448.904C237.132 448.701 237.42 448.403 237.634 448.008C237.847 447.613 237.954 447.133 237.954 446.568C237.954 445.725 237.73 445.08 237.282 444.632C236.844 444.173 236.306 443.944 235.666 443.944C235.026 443.944 234.487 444.173 234.05 444.632C233.623 445.08 233.41 445.725 233.41 446.568C233.41 447.411 233.618 448.061 234.034 448.52C234.46 448.968 234.994 449.192 235.634 449.192ZM258.221 442.008C259.309 442.008 260.184 442.344 260.845 443.016C261.517 443.677 261.853 444.605 261.853 445.8V451H259.613V446.104C259.613 445.411 259.437 444.883 259.085 444.52C258.733 444.147 258.253 443.96 257.645 443.96C257.037 443.96 256.552 444.147 256.189 444.52C255.837 444.883 255.661 445.411 255.661 446.104V451H253.421V446.104C253.421 445.411 253.245 444.883 252.893 444.52C252.541 444.147 252.061 443.96 251.453 443.96C250.835 443.96 250.344 444.147 249.981 444.52C249.629 444.883 249.453 445.411 249.453 446.104V451H247.213V442.136H249.453V443.208C249.741 442.835 250.109 442.541 250.557 442.328C251.016 442.115 251.517 442.008 252.061 442.008C252.755 442.008 253.373 442.157 253.917 442.456C254.461 442.744 254.883 443.16 255.181 443.704C255.469 443.192 255.885 442.781 256.429 442.472C256.984 442.163 257.581 442.008 258.221 442.008ZM272.969 446.376C272.969 446.696 272.948 446.984 272.905 447.24H266.425C266.478 447.88 266.702 448.381 267.097 448.744C267.492 449.107 267.977 449.288 268.553 449.288C269.385 449.288 269.977 448.931 270.329 448.216H272.745C272.489 449.069 271.998 449.773 271.273 450.328C270.548 450.872 269.657 451.144 268.601 451.144C267.748 451.144 266.98 450.957 266.297 450.584C265.625 450.2 265.097 449.661 264.713 448.968C264.34 448.275 264.153 447.475 264.153 446.568C264.153 445.651 264.34 444.845 264.713 444.152C265.086 443.459 265.609 442.925 266.281 442.552C266.953 442.179 267.726 441.992 268.601 441.992C269.444 441.992 270.196 442.173 270.857 442.536C271.529 442.899 272.046 443.416 272.409 444.088C272.782 444.749 272.969 445.512 272.969 446.376ZM270.649 445.736C270.638 445.16 270.43 444.701 270.025 444.36C269.62 444.008 269.124 443.832 268.537 443.832C267.982 443.832 267.513 444.003 267.129 444.344C266.756 444.675 266.526 445.139 266.441 445.736H270.649ZM268.569 440.136L266.185 441.48V439.848L268.569 438.552L270.937 439.848V441.48L268.569 440.136ZM278.746 451.144C278.021 451.144 277.37 451.016 276.794 450.76C276.218 450.493 275.759 450.136 275.418 449.688C275.087 449.24 274.906 448.744 274.874 448.2H277.13C277.173 448.541 277.338 448.824 277.626 449.048C277.925 449.272 278.293 449.384 278.73 449.384C279.157 449.384 279.487 449.299 279.722 449.128C279.967 448.957 280.09 448.739 280.09 448.472C280.09 448.184 279.941 447.971 279.642 447.832C279.354 447.683 278.89 447.523 278.25 447.352C277.589 447.192 277.045 447.027 276.618 446.856C276.202 446.685 275.839 446.424 275.53 446.072C275.231 445.72 275.082 445.245 275.082 444.648C275.082 444.157 275.221 443.709 275.498 443.304C275.786 442.899 276.191 442.579 276.714 442.344C277.247 442.109 277.871 441.992 278.586 441.992C279.642 441.992 280.485 442.259 281.114 442.792C281.743 443.315 282.09 444.024 282.154 444.92H280.01C279.978 444.568 279.829 444.291 279.562 444.088C279.306 443.875 278.959 443.768 278.522 443.768C278.117 443.768 277.802 443.843 277.578 443.992C277.365 444.141 277.258 444.349 277.258 444.616C277.258 444.915 277.407 445.144 277.706 445.304C278.005 445.453 278.469 445.608 279.098 445.768C279.738 445.928 280.266 446.093 280.682 446.264C281.098 446.435 281.455 446.701 281.754 447.064C282.063 447.416 282.223 447.885 282.234 448.472C282.234 448.984 282.09 449.443 281.802 449.848C281.525 450.253 281.119 450.573 280.586 450.808C280.063 451.032 279.45 451.144 278.746 451.144ZM288.809 446.536C288.809 445.64 288.985 444.845 289.337 444.152C289.7 443.459 290.191 442.925 290.809 442.552C291.428 442.179 292.116 441.992 292.873 441.992C293.449 441.992 293.999 442.12 294.521 442.376C295.044 442.621 295.46 442.952 295.769 443.368V439.16H298.041V451H295.769V449.688C295.492 450.125 295.103 450.477 294.601 450.744C294.1 451.011 293.519 451.144 292.857 451.144C292.111 451.144 291.428 450.952 290.809 450.568C290.191 450.184 289.7 449.645 289.337 448.952C288.985 448.248 288.809 447.443 288.809 446.536ZM295.785 446.568C295.785 446.024 295.679 445.56 295.465 445.176C295.252 444.781 294.964 444.483 294.601 444.28C294.239 444.067 293.849 443.96 293.433 443.96C293.017 443.96 292.633 444.061 292.281 444.264C291.929 444.467 291.641 444.765 291.417 445.16C291.204 445.544 291.097 446.003 291.097 446.536C291.097 447.069 291.204 447.539 291.417 447.944C291.641 448.339 291.929 448.643 292.281 448.856C292.644 449.069 293.028 449.176 293.433 449.176C293.849 449.176 294.239 449.075 294.601 448.872C294.964 448.659 295.252 448.36 295.465 447.976C295.679 447.581 295.785 447.112 295.785 446.568ZM309.219 446.376C309.219 446.696 309.198 446.984 309.155 447.24H302.675C302.728 447.88 302.952 448.381 303.347 448.744C303.742 449.107 304.227 449.288 304.803 449.288C305.635 449.288 306.227 448.931 306.579 448.216H308.995C308.739 449.069 308.248 449.773 307.523 450.328C306.798 450.872 305.907 451.144 304.851 451.144C303.998 451.144 303.23 450.957 302.547 450.584C301.875 450.2 301.347 449.661 300.963 448.968C300.59 448.275 300.403 447.475 300.403 446.568C300.403 445.651 300.59 444.845 300.963 444.152C301.336 443.459 301.859 442.925 302.531 442.552C303.203 442.179 303.976 441.992 304.851 441.992C305.694 441.992 306.446 442.173 307.107 442.536C307.779 442.899 308.296 443.416 308.659 444.088C309.032 444.749 309.219 445.512 309.219 446.376ZM306.899 445.736C306.888 445.16 306.68 444.701 306.275 444.36C305.87 444.008 305.374 443.832 304.787 443.832C304.232 443.832 303.763 444.003 303.379 444.344C303.006 444.675 302.776 445.139 302.691 445.736H306.899ZM327.175 442.008C328.263 442.008 329.137 442.344 329.799 443.016C330.471 443.677 330.807 444.605 330.807 445.8V451H328.567V446.104C328.567 445.411 328.391 444.883 328.039 444.52C327.687 444.147 327.207 443.96 326.599 443.96C325.991 443.96 325.505 444.147 325.143 444.52C324.791 444.883 324.615 445.411 324.615 446.104V451H322.375V446.104C322.375 445.411 322.199 444.883 321.847 444.52C321.495 444.147 321.015 443.96 320.407 443.96C319.788 443.96 319.297 444.147 318.935 444.52C318.583 444.883 318.407 445.411 318.407 446.104V451H316.167V442.136H318.407V443.208C318.695 442.835 319.063 442.541 319.511 442.328C319.969 442.115 320.471 442.008 321.015 442.008C321.708 442.008 322.327 442.157 322.871 442.456C323.415 442.744 323.836 443.16 324.135 443.704C324.423 443.192 324.839 442.781 325.383 442.472C325.937 442.163 326.535 442.008 327.175 442.008ZM333.106 446.536C333.106 445.64 333.282 444.845 333.634 444.152C333.997 443.459 334.482 442.925 335.09 442.552C335.709 442.179 336.397 441.992 337.154 441.992C337.815 441.992 338.391 442.125 338.882 442.392C339.383 442.659 339.783 442.995 340.082 443.4V442.136H342.338V451H340.082V449.704C339.794 450.12 339.394 450.467 338.882 450.744C338.381 451.011 337.799 451.144 337.138 451.144C336.391 451.144 335.709 450.952 335.09 450.568C334.482 450.184 333.997 449.645 333.634 448.952C333.282 448.248 333.106 447.443 333.106 446.536ZM340.082 446.568C340.082 446.024 339.975 445.56 339.762 445.176C339.549 444.781 339.261 444.483 338.898 444.28C338.535 444.067 338.146 443.96 337.73 443.96C337.314 443.96 336.93 444.061 336.578 444.264C336.226 444.467 335.938 444.765 335.714 445.16C335.501 445.544 335.394 446.003 335.394 446.536C335.394 447.069 335.501 447.539 335.714 447.944C335.938 448.339 336.226 448.643 336.578 448.856C336.941 449.069 337.325 449.176 337.73 449.176C338.146 449.176 338.535 449.075 338.898 448.872C339.261 448.659 339.549 448.36 339.762 447.976C339.975 447.581 340.082 447.112 340.082 446.568ZM347.516 443.512C347.804 443.043 348.177 442.675 348.636 442.408C349.105 442.141 349.639 442.008 350.236 442.008V444.36H349.644C348.94 444.36 348.407 444.525 348.044 444.856C347.692 445.187 347.516 445.763 347.516 446.584V451H345.276V442.136H347.516V443.512ZM356.287 449.224C357.193 449.224 357.785 448.819 358.063 448.008H360.479C360.255 448.872 359.839 449.576 359.231 450.12C358.633 450.664 357.881 450.989 356.975 451.096V451.72C357.561 451.72 358.052 451.869 358.447 452.168C358.852 452.467 359.055 452.899 359.055 453.464C359.055 454.04 358.847 454.483 358.431 454.792C358.025 455.101 357.524 455.256 356.927 455.256H354.655V453.944H356.559C356.815 453.944 357.007 453.907 357.135 453.832C357.273 453.757 357.343 453.624 357.343 453.432C357.343 453.24 357.273 453.107 357.135 453.032C357.007 452.968 356.815 452.936 356.559 452.936H355.567V451.096C354.841 450.989 354.201 450.739 353.647 450.344C353.103 449.939 352.676 449.416 352.367 448.776C352.068 448.125 351.919 447.389 351.919 446.568C351.919 445.651 352.105 444.851 352.479 444.168C352.852 443.475 353.369 442.941 354.031 442.568C354.692 442.184 355.449 441.992 356.303 441.992C357.401 441.992 358.308 442.269 359.023 442.824C359.748 443.368 360.233 444.136 360.479 445.128H358.063C357.935 444.744 357.716 444.445 357.407 444.232C357.108 444.008 356.735 443.896 356.287 443.896C355.647 443.896 355.14 444.131 354.767 444.6C354.393 445.059 354.207 445.715 354.207 446.568C354.207 447.411 354.393 448.067 354.767 448.536C355.14 448.995 355.647 449.224 356.287 449.224ZM366.806 451.144C365.952 451.144 365.184 450.957 364.502 450.584C363.819 450.2 363.28 449.661 362.886 448.968C362.502 448.275 362.31 447.475 362.31 446.568C362.31 445.661 362.507 444.861 362.902 444.168C363.307 443.475 363.856 442.941 364.55 442.568C365.243 442.184 366.016 441.992 366.87 441.992C367.723 441.992 368.496 442.184 369.19 442.568C369.883 442.941 370.427 443.475 370.822 444.168C371.227 444.861 371.43 445.661 371.43 446.568C371.43 447.475 371.222 448.275 370.806 448.968C370.4 449.661 369.846 450.2 369.142 450.584C368.448 450.957 367.67 451.144 366.806 451.144ZM366.806 449.192C367.211 449.192 367.59 449.096 367.942 448.904C368.304 448.701 368.592 448.403 368.806 448.008C369.019 447.613 369.126 447.133 369.126 446.568C369.126 445.725 368.902 445.08 368.454 444.632C368.016 444.173 367.478 443.944 366.838 443.944C366.198 443.944 365.659 444.173 365.222 444.632C364.795 445.08 364.582 445.725 364.582 446.568C364.582 447.411 364.79 448.061 365.206 448.52C365.632 448.968 366.166 449.192 366.806 449.192ZM374.271 439.832H376.623L374.895 443.864H373.359L374.271 439.832ZM377.503 439.832H379.855L378.127 443.864H376.591L377.503 439.832Z" fill="#4E4B66"/>
</svg>
